<svg xmlns="http://www.w3.org/2000/svg" width="100%" height="auto" viewBox="0 0 81 80" fill="none">
  <path fill-rule="evenodd" clip-rule="evenodd" d="M40.3455 14.9027C33.767 14.8139 29.6812 10.4192 28.0885 1.71875L19.7759 3.79703C20.3726 15.2672 27.8124 24.9075 39.2638 25.7948C39.3275 27.3295 39.7641 28.8255 40.5357 30.1535C41.3074 31.4816 42.391 32.6016 43.6927 33.4169C42.8802 36.3029 43.174 39.3882 44.5168 42.0689C41.1274 42.5623 38.5966 45.442 38.5429 48.8669C34.3285 47.7039 30.037 48.528 25.668 51.3389C9.3468 38.9627 -6.53492 60.6989 8.83727 70.8009C12.109 72.9509 15.6257 74.7847 15.7213 78.2814H23.338C23.338 70.5272 16.829 67.3575 13.0334 64.8572C7.40586 61.1503 12.2674 57.3734 15.8815 59.5328C17.889 60.7323 20.3266 62.7705 25.1016 61.3556C38.8079 71.4809 57.9723 69.4917 69.3066 56.7672C94.9496 27.9794 61.338 -10.0823 40.3455 14.9027ZM57.2166 57.5209C47.9748 62.8716 36.467 62.3681 27.7276 56.2309C35.1284 51.9275 38.2757 55.6316 41.3995 53.8153C44.8398 51.8153 42.8455 46.19 49.5635 46.2398C48.9587 41.5039 50.229 38.0019 53.3745 35.7339C62.1523 36.6884 68.0368 33.8208 70.7815 31.305C71.7521 41.9398 66.4587 52.1703 57.2168 57.5208L57.2166 57.5209ZM52.7662 52.0275C52.7662 53.3559 51.6893 54.4328 50.3609 54.4328C49.0324 54.4328 47.9556 53.3559 47.9556 52.0275C47.9556 50.6991 49.0324 49.6222 50.3609 49.6222C51.6893 49.6222 52.7662 50.6991 52.7662 52.0275ZM46.9288 56.5741C46.9288 57.4489 46.2196 58.1581 45.3449 58.1581C44.4702 58.1581 43.7609 57.4489 43.7609 56.5741C43.7609 55.6992 44.4701 54.9902 45.3449 54.9902C46.2198 54.9902 46.9288 55.6992 46.9288 56.5741ZM56.2984 45.5553C56.2984 46.2158 55.7631 46.7511 55.1026 46.7511C54.4421 46.7511 53.9068 46.2158 53.9068 45.5553C53.9068 44.8948 54.4421 44.3595 55.1026 44.3595C55.7631 44.3595 56.2984 44.8948 56.2984 45.5553ZM59.5421 51.0009C59.5421 51.8758 58.8329 52.585 57.958 52.585C57.0832 52.585 56.374 51.8758 56.374 51.0009C56.374 50.1261 57.0832 49.4169 57.958 49.4169C58.8329 49.4169 59.5421 50.1261 59.5421 51.0009ZM63.4949 45.5673C63.4949 46.5841 62.6707 47.4084 61.654 47.4084C60.6373 47.4084 59.8129 46.5842 59.8129 45.5673C59.8129 44.5505 60.6371 43.7264 61.654 43.7264C62.6709 43.7264 63.4949 44.5506 63.4949 45.5673ZM16.3598 45.815C24.0248 45.815 30.2762 39.5634 30.2762 31.8986C30.2762 24.2337 24.0246 17.9822 16.3598 17.9822C8.69492 17.9822 2.44336 24.2336 2.44336 31.8986C2.44336 39.5636 8.69492 45.815 16.3598 45.815ZM8.2557 29.882C8.25603 29.7093 8.32479 29.5438 8.44691 29.4217C8.56903 29.2996 8.73456 29.2308 8.90727 29.2305H13.6916V24.4461C13.692 24.2734 13.7607 24.1079 13.8828 23.9857C14.005 23.8636 14.1705 23.7949 14.3432 23.7945H18.3762C18.5489 23.7949 18.7144 23.8636 18.8365 23.9857C18.9587 24.1079 19.0274 24.2734 19.0277 24.4461V29.2305H23.8121C23.9848 29.2308 24.1503 29.2996 24.2725 29.4217C24.3946 29.5438 24.4633 29.7093 24.4637 29.882V33.915C24.4633 34.0877 24.3946 34.2532 24.2725 34.3754C24.1503 34.4975 23.9848 34.5662 23.8121 34.5666H19.0277V39.3509C19.0274 39.5236 18.9587 39.6892 18.8365 39.8113C18.7144 39.9334 18.5489 40.0022 18.3762 40.0025H14.3432C14.1705 40.0022 14.005 39.9334 13.8828 39.8113C13.7607 39.6892 13.692 39.5236 13.6916 39.3509V34.5666H8.90727C8.73456 34.5662 8.56903 34.4975 8.44691 34.3754C8.32479 34.2532 8.25603 34.0877 8.2557 33.915V29.882Z" fill="#09B2B5"/>
</svg>