<svg xmlns="http://www.w3.org/2000/svg" width="34" height="36" viewBox="0 0 34 36" fill="none">
  <path d="M27 1.33301V4.66634M7 1.33301V4.66634" stroke="#09B2B5" stroke-width="1.5" stroke-linecap="round" stroke-linejoin="round"/>
  <path d="M16.9925 19.667H17.0075M16.9925 26.3337H17.0075M23.6517 19.667H23.6667M10.3333 19.667H10.3483M10.3333 26.3337H10.3483" stroke="#09B2B5" stroke-width="3" stroke-linecap="round" stroke-linejoin="round"/>
  <path d="M2.83334 11.333H31.1667" stroke="#09B2B5" stroke-width="1.5" stroke-linecap="round" stroke-linejoin="round"/>
  <path d="M1.16666 18.4054C1.16666 11.1432 1.16666 7.51214 3.25352 5.25607C5.34038 3 8.69914 3 15.4167 3H18.5833C25.3008 3 28.6596 3 30.7465 5.25607C32.8333 7.51214 32.8333 11.1432 32.8333 18.4054V19.2613C32.8333 26.5234 32.8333 30.1545 30.7465 32.4106C28.6596 34.6667 25.3008 34.6667 18.5833 34.6667H15.4167C8.69914 34.6667 5.34038 34.6667 3.25352 32.4106C1.16666 30.1545 1.16666 26.5234 1.16666 19.2613V18.4054Z" stroke="#09B2B5" stroke-width="2" stroke-linecap="round" stroke-linejoin="round"/>
  <path d="M2 11.333H32" stroke="#09B2B5" stroke-width="2" stroke-linecap="round" stroke-linejoin="round"/>
</svg>