<svg xmlns="http://www.w3.org/2000/svg" width="40" height="40" viewBox="0 0 40 40" fill="none">
  <g clip-path="url(#clip0_24205_10333)">
    <path d="M20.0054 25.9228C23.2767 25.9228 25.9287 23.2709 25.9287 19.9995C25.9287 16.7281 23.2767 14.0762 20.0054 14.0762C16.734 14.0762 14.082 16.7281 14.082 19.9995C14.082 23.2709 16.734 25.9228 20.0054 25.9228Z" fill="white"/>
    <path d="M39.9956 11.2554C40.0328 12.2253 39.8603 13.1917 39.4897 14.0888C39.1191 14.9858 38.5593 15.7923 37.8484 16.4531C37.5792 16.674 37.3663 16.9556 37.2273 17.2749C37.0883 17.5941 37.0271 17.9418 37.0487 18.2893C37.4708 25.7009 37.6041 32.6682 37.6041 32.6682C37.6498 33.801 36.7687 34.7563 35.6359 34.802C34.5032 34.8477 33.5479 33.9666 33.5022 32.8339C33.4999 32.7787 33.4999 32.7234 33.5022 32.6682C33.5022 32.6682 33.5466 30.5654 33.6576 27.4335C33.7391 24.879 33.8724 21.636 34.0575 18.2893C34.0788 17.9426 34.0183 17.5956 33.8806 17.2766C33.743 16.9576 33.5322 16.6755 33.2652 16.4531C31.345 14.884 30.7278 11.7867 31.3327 9.36735C31.9103 6.94619 33.5836 5.19141 35.5531 5.19141C38.0039 5.19141 39.9956 7.90873 39.9956 11.2554Z" fill="white"/>
    <path d="M32.316 17.601C29.7383 15.4661 29.0361 11.3724 30.117 8.20511C24.4848 3.35465 16.2017 3.18685 10.3775 7.80528C10.3775 13.6133 10.5289 14.1189 9.7556 15.4908C9.32864 16.2492 8.70769 16.8803 7.95639 17.3196C7.85107 17.3852 7.74971 17.4569 7.65282 17.5343C7.30177 18.5875 7.95288 22.0895 8.1563 30.0473C13.6855 36.5918 23.4733 37.4148 30.0177 31.8855C30.7763 31.2446 31.4715 30.5324 32.0939 29.7586C32.1754 27.0265 32.3309 22.6876 32.5826 18.2007C32.5891 18.0867 32.5684 17.9729 32.522 17.8685C32.4756 17.7642 32.405 17.6725 32.316 17.601ZM20.0029 27.4041C15.9137 27.4041 12.5988 24.0891 12.5988 19.9999C12.5988 15.9107 15.9137 12.5958 20.0029 12.5958C24.0922 12.5958 27.4071 15.9107 27.4071 19.9999C27.4003 24.0863 24.0894 27.3973 20.0029 27.4041Z" fill="white"/>
    <path d="M8.46812 14.7653C7.60184 16.2905 6.469 15.9647 6.18765 17.2827C6.08978 17.8223 6.05006 18.3709 6.06918 18.919C6.16543 20.3554 6.43939 24.4425 6.59487 27.8484C6.67808 27.8484 6.67336 32.4511 6.66151 32.5796C6.39496 35.4599 2.61144 35.6894 2.21902 32.5796C2.01911 31.047 2.26345 25.8863 2.84097 18.9264C2.88097 18.3855 2.84105 17.8416 2.7225 17.3123C2.44115 16.0091 1.30831 16.3127 0.442024 14.8023C-0.114953 13.805 0.0125834 13.7895 0.0125834 6.56145C-0.0446137 5.94811 0.406299 5.40446 1.01973 5.34736C1.63307 5.29016 2.17672 5.74107 2.23383 6.35451C2.24021 6.42336 2.24021 6.49269 2.23383 6.56154V10.9966C2.23077 11.0715 2.24287 11.1461 2.2694 11.2162C2.29593 11.2862 2.33635 11.3502 2.38821 11.4042C2.44008 11.4582 2.50233 11.5012 2.57123 11.5306C2.64012 11.5599 2.71425 11.5751 2.78914 11.5751C2.86403 11.5751 2.93816 11.5599 3.00705 11.5306C3.07595 11.5012 3.1382 11.4582 3.19007 11.4042C3.24194 11.3502 3.28235 11.2862 3.30888 11.2162C3.33541 11.1461 3.34751 11.0715 3.34445 10.9966V6.56154C3.28725 5.9482 3.73817 5.40455 4.3516 5.34745C4.96504 5.29034 5.50859 5.74116 5.5657 6.3546C5.57208 6.42346 5.57208 6.49278 5.5657 6.56164V10.9967C5.56264 11.0716 5.57474 11.1462 5.60127 11.2163C5.6278 11.2863 5.66821 11.3503 5.72008 11.4043C5.77195 11.4583 5.8342 11.5013 5.9031 11.5307C5.97199 11.56 6.04611 11.5752 6.12101 11.5752C6.1959 11.5752 6.27002 11.56 6.33892 11.5307C6.40782 11.5013 6.47007 11.4583 6.52194 11.4043C6.5738 11.3503 6.61422 11.2863 6.64075 11.2163C6.66727 11.1462 6.67938 11.0716 6.67632 10.9967V6.56164C6.61551 5.95181 7.0605 5.40816 7.67033 5.34736C8.28015 5.28655 8.8238 5.73154 8.88461 6.34136C8.88822 6.37764 8.89007 6.41411 8.89007 6.45057V6.45798C8.89618 6.49213 8.89868 6.52693 8.89747 6.56164C8.89757 13.7489 9.02584 13.7757 8.46812 14.7653Z" fill="white"/>
  </g>
  <defs>
    <clipPath id="clip0_24205_10333">
      <rect width="40" height="40" fill="white"/>
    </clipPath>
  </defs>
</svg>