<svg xmlns="http://www.w3.org/2000/svg" width="100%" height="auto" viewBox="0 0 81 80" fill="none">
  <g clip-path="url(#clip0_24417_6800)">
    <path d="M75.2857 14.2857C73.18 14.2857 71.3571 15.4429 70.3657 17.1428H52.4285V14.2857H61C61.7577 14.2855 62.4843 13.9844 63.02 13.4486L67.8971 8.57142H70.3657C71.3571 10.2714 73.18 11.4286 75.2857 11.4286C78.4371 11.4286 81 8.86571 81 5.71428C81 2.56286 78.4371 0 75.2857 0C73.18 0 71.3571 1.15714 70.3657 2.85714H66.7143C65.9566 2.8573 65.2299 3.15843 64.6943 3.69428L59.8171 8.57142H52.4285V2.85714C52.4285 2.09938 52.1275 1.37266 51.5917 0.836837C51.0559 0.301019 50.3292 0 49.5714 0H18.1428V14.2857C18.1428 15.0435 17.8418 15.7702 17.306 16.306C16.7702 16.8418 16.0435 17.1428 15.2857 17.1428H1V62.8571C1 63.6149 1.30102 64.3416 1.83684 64.8774C2.37266 65.4132 3.09938 65.7143 3.85714 65.7143H15.36C7.40857 59.76 2.62286 49.8 4.13714 38.8286C5.91428 25.9371 16.6143 15.6971 29.5657 14.4286C33.822 13.9985 38.1204 14.5329 42.1418 15.9921C46.1632 17.4513 49.8042 19.7977 52.7943 22.8571H70.3657C71.3542 24.5571 73.1771 25.7143 75.2828 25.7143C78.4342 25.7143 80.9971 23.1514 80.9971 20C80.9971 16.8486 78.4371 14.2857 75.2857 14.2857Z" fill="#09B2B5"/>
    <path d="M75.2862 28.5711C73.1805 28.5711 71.3577 29.7283 70.3662 31.4283H67.8977L63.0205 26.5511C62.4848 26.0153 61.7582 25.7142 61.0005 25.714H55.2863C55.2691 25.714 55.2577 25.7226 55.2377 25.7226C56.5762 27.4875 57.7048 29.4023 58.6005 31.4283H59.8205L64.6977 36.3054C65.2327 36.8406 65.9581 37.1417 66.7148 37.1426H70.3662C71.3577 38.8426 73.1805 39.9997 75.2862 39.9997C78.4377 39.9997 81.0005 37.4369 81.0005 34.2854C81.0005 31.134 78.4377 28.5711 75.2862 28.5711ZM57.312 57.9797C56.7762 57.4441 56.0496 57.1432 55.292 57.1432C54.5344 57.1432 53.8078 57.4441 53.272 57.9797L52.912 58.3397C56.3039 53.8907 58.1418 48.4514 58.1434 42.8569C58.1434 28.6797 46.6091 17.1426 32.4291 17.1426C18.2491 17.1426 6.71484 28.6797 6.71484 42.8569C6.71484 57.034 18.2491 68.5711 32.4291 68.5711C38.2463 68.5711 43.6005 66.6083 47.912 63.3397L47.5577 63.694C47.0221 64.2298 46.7212 64.9564 46.7212 65.714C46.7212 66.4716 47.0221 67.1982 47.5577 67.734L57.8034 77.9797C58.4421 78.6226 59.2021 79.1322 60.0393 79.4789C60.8766 79.8257 61.7743 80.0027 62.6805 79.9997C64.5205 79.9997 66.252 79.2826 67.5577 77.9797C70.2434 75.2911 70.2434 70.914 67.5577 68.2254L57.312 57.9797ZM32.4291 62.8568C21.4006 62.8568 12.4291 53.8854 12.4291 42.8569C12.4291 31.8283 21.4006 22.8569 32.4291 22.8569C43.4577 22.8569 52.4291 31.8283 52.4291 42.8569C52.4291 53.8854 43.4577 62.8568 32.4291 62.8568Z" fill="#09B2B5"/>
    <path d="M45.8771 29.4086C45.3413 28.8729 44.6147 28.572 43.8571 28.572C43.0995 28.572 42.3729 28.8729 41.8371 29.4086L38.1971 33.0486C37.2881 32.5098 36.3081 32.1011 35.2857 31.8343V28.5714C35.2857 27.8137 34.9847 27.0869 34.4489 26.5511C33.913 26.0153 33.1863 25.7143 32.4286 25.7143C31.6708 25.7143 30.9441 26.0153 30.4083 26.5511C29.8724 27.0869 29.5714 27.8137 29.5714 28.5714V31.8343C28.548 32.1008 27.567 32.5096 26.6571 33.0486L23.02 29.4086C22.7564 29.1357 22.4412 28.918 22.0926 28.7683C21.744 28.6185 21.3691 28.5397 20.9897 28.5364C20.6103 28.5331 20.2341 28.6054 19.883 28.7491C19.5318 28.8927 19.2128 29.1049 18.9446 29.3731C18.6763 29.6414 18.4642 29.9604 18.3205 30.3115C18.1768 30.6627 18.1046 31.0389 18.1078 31.4183C18.1111 31.7976 18.19 32.1726 18.3397 32.5211C18.4894 32.8697 18.7071 33.185 18.98 33.4486L22.62 37.0886C22.0813 37.9976 21.6725 38.9776 21.4057 40H18.1428C17.3851 40 16.6584 40.301 16.1225 40.8368C15.5867 41.3726 15.2857 42.0994 15.2857 42.8571C15.2857 43.6149 15.5867 44.3416 16.1225 44.8774C16.6584 45.4132 17.3851 45.7143 18.1428 45.7143H21.4057C21.6743 46.7514 22.0857 47.7257 22.62 48.6285L18.98 52.2657C18.7071 52.5293 18.4894 52.8445 18.3397 53.1931C18.19 53.5417 18.1111 53.9166 18.1078 54.296C18.1046 54.6753 18.1768 55.0516 18.3205 55.4027C18.4642 55.7538 18.6763 56.0728 18.9446 56.3411C19.2128 56.6094 19.5318 56.8215 19.883 56.9652C20.2341 57.1088 20.6103 57.1811 20.9897 57.1778C21.3691 57.1745 21.744 57.0957 22.0926 56.946C22.4412 56.7962 22.7564 56.5786 23.02 56.3057L26.66 52.6657C27.56 53.2 28.5343 53.6085 29.5714 53.88V57.1428C29.5714 57.9006 29.8724 58.6273 30.4083 59.1631C30.9441 59.699 31.6708 60 32.4286 60C33.1863 60 33.913 59.699 34.4489 59.1631C34.9847 58.6273 35.2857 57.9006 35.2857 57.1428V53.88C36.3091 53.6134 37.2901 53.2047 38.2 52.6657L41.8371 56.3057C42.1018 56.5719 42.4166 56.7832 42.7633 56.9274C43.1099 57.0716 43.4817 57.1458 43.8571 57.1458C44.2326 57.1458 44.6043 57.0716 44.951 56.9274C45.2977 56.7832 45.6124 56.5719 45.8771 56.3057C46.4128 55.7699 46.7137 55.0433 46.7137 54.2857C46.7137 53.5281 46.4128 52.8015 45.8771 52.2657L42.2371 48.6257C42.7759 47.7167 43.1846 46.7367 43.4514 45.7143H46.7143C47.472 45.7143 48.1988 45.4132 48.7346 44.8774C49.2704 44.3416 49.5714 43.6149 49.5714 42.8571C49.5714 42.0994 49.2704 41.3726 48.7346 40.8368C48.1988 40.301 47.472 40 46.7143 40H43.4514C43.1848 38.9766 42.7761 37.9956 42.2371 37.0857L45.8771 33.4486C46.4128 32.9128 46.7137 32.1862 46.7137 31.4286C46.7137 30.6709 46.4128 29.9444 45.8771 29.4086ZM15.2857 0L1 14.2857H15.2857V0Z" fill="#09B2B5"/>
  </g>
  <defs>
    <clipPath id="clip0_24417_6800">
      <rect width="80" height="80" fill="white" transform="translate(0.5)"/>
    </clipPath>
  </defs>
</svg>