<svg xmlns="http://www.w3.org/2000/svg" width="40" height="40" viewBox="0 0 40 40" fill="none">
  <path d="M8.8438 4.625L30.3797 4.625C31.3954 4.625 32.2188 3.80164 32.2188 2.78598V1.8393C32.2188 0.82364 31.3954 0.000281334 30.3797 0.000281334L8.8438 0.000281334C7.82813 0.000281334 7.00477 0.82364 7.00477 1.8393V2.78598C7.00477 3.80164 7.82813 4.625 8.8438 4.625Z" fill="white"/>
  <path d="M10.484 5.6123H28.7295V7.20985H10.484V5.6123ZM7 13.6904H32.214V10.6997C32.2138 10.0361 31.9502 9.39977 31.4809 8.93054C31.0117 8.46131 30.3753 8.19764 29.7117 8.19751H9.50224C8.83864 8.19764 8.20227 8.46131 7.73303 8.93054C7.2638 9.39977 7.00013 10.0361 7 10.6997V13.6904ZM32.214 34.5073H7V37.4979C7.00013 38.1615 7.2638 38.7979 7.73303 39.2671C8.20227 39.7364 8.83864 40 9.50224 40.0002H29.7117C30.3753 40 31.0117 39.7364 31.4809 39.2671C31.9502 38.7979 32.2138 38.1615 32.214 37.4979V34.5073ZM32.214 14.678H7V33.5196H32.214V14.678ZM19.607 29.9004C12.6069 26.7853 14.5699 19.9171 14.5699 19.9171C14.9018 19.4391 15.6929 19.0647 16.5522 18.7837C18.5367 18.1348 20.6763 18.1348 22.6608 18.7837C23.5201 19.0647 24.3112 19.4391 24.6431 19.9171C24.6441 19.9171 26.607 26.7853 19.607 29.9004Z" fill="white"/>
</svg>