<svg xmlns="http://www.w3.org/2000/svg" width="33" height="33" viewBox="0 0 33 33" fill="none">
  <g clip-path="url(#clip0_24237_8691)">
    <path d="M16.4995 31.1917C15.539 31.1917 14.5786 30.8262 13.8475 30.095L3.2901 19.5376C-0.429709 15.8178 -0.429709 9.7653 3.2901 6.04555C6.91704 2.41862 12.762 2.32837 16.4996 5.77424C20.2375 2.33099 26.0799 2.42249 29.706 6.04849C31.5079 7.85043 32.5002 10.2462 32.5002 12.7945C32.5002 15.3427 31.5077 17.7386 29.706 19.5405L19.1515 30.095C18.4204 30.8262 17.4599 31.1917 16.4995 31.1917ZM10.0362 5.75162C8.15573 5.75162 6.38785 6.48387 5.05817 7.81355C3.72848 9.14324 2.99617 10.9112 2.99617 12.7916C2.99617 14.6721 3.72842 16.4399 5.0581 17.7696L15.6155 28.327C16.1029 28.8144 16.896 28.8144 17.3835 28.327L27.938 17.7726C29.2676 16.4429 29.9999 14.675 29.9999 12.7946C29.9999 10.9141 29.2677 9.14624 27.9379 7.81655C25.193 5.07168 20.7269 5.07168 17.9819 7.81655L17.3835 8.41499C16.8952 8.9033 16.1037 8.90324 15.6154 8.41499L15.0141 7.81368C13.6845 6.48393 11.9166 5.75162 10.0362 5.75162Z" fill="#7162E0"/>
  </g>
  <defs>
    <clipPath id="clip0_24237_8691">
      <rect width="32" height="32" fill="white" transform="translate(0.5 0.856445)"/>
    </clipPath>
  </defs>
</svg>