<svg xmlns="http://www.w3.org/2000/svg" width="33" height="33" viewBox="0 0 33 33" fill="none">
  <path d="M30.495 16.106H22.86C22.6933 16.1061 22.5315 16.1616 22.3999 16.264C22.2683 16.3663 22.1746 16.5095 22.1335 16.671L20.526 22.988L18.513 8.75099C18.4876 8.58672 18.4086 8.43547 18.2882 8.32084C18.1679 8.20622 18.013 8.13467 17.8476 8.11737C17.6823 8.10007 17.5159 8.13799 17.3744 8.2252C17.233 8.31242 17.1243 8.44403 17.0655 8.59949L12.807 20.313L10.862 12.671C10.8241 12.5305 10.7463 12.404 10.6382 12.3067C10.53 12.2093 10.396 12.1453 10.2524 12.1223C10.1087 12.0994 9.96141 12.1184 9.82829 12.1771C9.69517 12.2359 9.58186 12.3319 9.502 12.4535L7.178 16.106H2.5C2.30109 16.106 2.11032 16.185 1.96967 16.3257C1.82902 16.4663 1.75 16.6571 1.75 16.856C1.75 17.0549 1.82902 17.2457 1.96967 17.3863C2.11032 17.527 2.30109 17.606 2.5 17.606H7.59C7.71623 17.606 7.84042 17.5742 7.95108 17.5134C8.06173 17.4527 8.15526 17.365 8.223 17.2585L9.836 14.7225L11.9535 23.041C11.9953 23.1944 12.0846 23.3306 12.2084 23.4302C12.3323 23.5299 12.4845 23.5878 12.6433 23.5957C12.8021 23.6036 12.9593 23.5612 13.0925 23.4744C13.2257 23.3876 13.3281 23.2609 13.385 23.1125L17.448 11.9365L19.5725 26.961C19.5968 27.133 19.68 27.2913 19.8081 27.4087C19.9361 27.5262 20.1009 27.5956 20.2744 27.605C20.4478 27.6145 20.6192 27.5634 20.7592 27.4605C20.8992 27.3577 20.9992 27.2094 21.042 27.041L23.4435 17.606H30.495C30.6939 17.606 30.8847 17.527 31.0253 17.3863C31.166 17.2457 31.245 17.0549 31.245 16.856C31.245 16.6571 31.166 16.4663 31.0253 16.3257C30.8847 16.185 30.6939 16.106 30.495 16.106Z" fill="#F8AB1B" stroke="#F8AB1B" stroke-width="1.2" stroke-miterlimit="10"/>
</svg>