<svg xmlns="http://www.w3.org/2000/svg" width="32" height="32" viewBox="0 0 32 32" fill="none">
  <path fill-rule="evenodd" clip-rule="evenodd" d="M28.2587 22.7633C29.404 20.6933 30.0033 18.3657 30 16C30 8.27333 23.7267 2 16 2C8.27333 2 2 8.27333 2 16C2 23.7267 8.27333 30 16 30C18.4567 30 20.7667 29.366 22.7753 28.252L22.5807 28.056C22.2088 27.6815 22.0001 27.1751 22 26.6473V23.9987C20.2708 25.3003 18.1644 26.0029 16 26C10.4807 26 6 21.5193 6 16C6 10.4807 10.4807 6 16 6C21.5193 6 26 10.4807 26 16C26.003 18.1644 25.3004 20.2708 23.9987 22H26.6667C27.1973 22 27.706 22.2107 28.0807 22.586L28.2587 22.7633Z" fill="#09B2B5"/>
  <path fill-rule="evenodd" clip-rule="evenodd" d="M27.332 29.333C27.332 29.4651 27.2927 29.5942 27.2192 29.7039C27.1457 29.8136 27.0413 29.8991 26.9192 29.9493C26.797 29.9996 26.6627 30.0125 26.5333 29.9863C26.4038 29.9601 26.285 29.8961 26.192 29.8023L23.5254 27.1163C23.4016 26.9915 23.3321 26.8228 23.332 26.647V23.9997C23.332 23.8229 23.4023 23.6533 23.5273 23.5283C23.6523 23.4032 23.8219 23.333 23.9987 23.333H26.6654C26.842 23.333 27.012 23.403 27.1367 23.5283L29.8034 26.195C29.8966 26.2882 29.96 26.407 29.9858 26.5363C30.0115 26.6656 29.9983 26.7996 29.9478 26.9214C29.8974 27.0432 29.8119 27.1474 29.7023 27.2206C29.5927 27.2939 29.4639 27.333 29.332 27.333H27.9987C27.911 27.333 27.8242 27.3503 27.7433 27.3839C27.6623 27.4175 27.5887 27.4667 27.5268 27.5287C27.4649 27.5908 27.4158 27.6644 27.3824 27.7455C27.349 27.8265 27.3319 27.9133 27.332 28.001V29.333ZM22.5794 21.637C23.9278 20.0686 24.6681 18.068 24.6654 15.9997C24.6654 11.2163 20.782 7.33301 15.9987 7.33301C11.2154 7.33301 7.33203 11.2163 7.33203 15.9997C7.33203 20.783 11.2154 24.6663 15.9987 24.6663C18.1507 24.6663 20.1207 23.8803 21.636 22.5803L18.7927 19.7363C17.9869 20.3413 17.0063 20.6677 15.9987 20.6663C13.4234 20.6663 11.332 18.575 11.332 15.9997C11.332 13.4243 13.4234 11.333 15.9987 11.333C18.574 11.333 20.6654 13.4243 20.6654 15.9997C20.6667 17.0072 20.3403 17.9879 19.7354 18.7937L22.5794 21.637Z" fill="#09B2B5"/>
  <path fill-rule="evenodd" clip-rule="evenodd" d="M18.782 17.8383C19.1135 17.3358 19.3029 16.753 19.33 16.1516C19.357 15.5502 19.2208 14.9526 18.9357 14.4224C18.6506 13.8922 18.2273 13.449 17.7106 13.14C17.194 12.8309 16.6033 12.6675 16.0013 12.667C14.1613 12.667 12.668 14.1603 12.668 16.0003C12.6684 16.6023 12.8319 17.193 13.1409 17.7096C13.45 18.2263 13.8932 18.6496 14.4234 18.9347C14.9536 19.2198 15.5511 19.3561 16.1525 19.329C16.754 19.3019 17.3368 19.1126 17.8393 18.781L15.53 16.4717C15.4085 16.3459 15.3413 16.1775 15.3429 16.0027C15.3444 15.8279 15.4145 15.6607 15.5381 15.5371C15.6617 15.4135 15.8289 15.3434 16.0037 15.3419C16.1785 15.3404 16.3469 15.4076 16.4726 15.529L18.782 17.8383Z" fill="#09B2B5"/>
</svg>