<svg xmlns="http://www.w3.org/2000/svg" width="40" height="40" viewBox="0 0 40 40" fill="none">
  <path d="M0.800028 18.1286C0.304849 16.422 0.0358742 14.6578 0 12.8813C0.271438 7.28534 2.93153 2.96947 6.9431 1.52371C10.9718 0.0722257 15.672 1.67085 20.0007 5.90958C24.3294 1.67085 29.031 0.0736544 33.0583 1.52371C37.0685 2.96947 39.73 7.28534 40 12.7884C39.9631 14.5968 39.6873 16.3924 39.18 18.1286H28.6939C28.4636 18.1291 28.2368 18.1852 28.0329 18.2922C27.8289 18.3991 27.6538 18.5537 27.5224 18.7429L26.0866 20.8073L23.8294 14.8928C23.7267 14.6238 23.5453 14.392 23.3087 14.2279C23.0722 14.0637 22.7916 13.9748 22.5037 13.9727H22.4937C22.2074 13.9726 21.9276 14.0584 21.6907 14.2192C21.4538 14.3799 21.2707 14.6081 21.165 14.8742L18.3149 22.0602L13.9276 10.7183C13.8227 10.4469 13.6375 10.214 13.3966 10.0508C13.1558 9.88751 12.8708 9.8017 12.5798 9.8048C12.2889 9.80791 12.0058 9.89979 11.7685 10.0681C11.5312 10.2365 11.3509 10.4733 11.2518 10.7469L8.56888 18.1286H0.800028ZM29.441 20.9858L26.8881 24.6574C26.7398 24.871 26.5361 25.0401 26.2988 25.1465C26.0615 25.2529 25.7997 25.2925 25.5416 25.261C25.2834 25.2296 25.0388 25.1283 24.834 24.968C24.6292 24.8078 24.472 24.5947 24.3794 24.3517L22.4694 19.3415L19.6264 26.5032C19.521 26.7695 19.3379 26.998 19.101 27.159C18.8641 27.32 18.5842 27.4061 18.2978 27.4061H18.2921C18.0048 27.4046 17.7246 27.3166 17.4881 27.1535C17.2516 26.9904 17.0697 26.7598 16.9663 26.4917L12.6376 15.2999L10.9118 20.0458C10.8115 20.3214 10.6289 20.5594 10.3886 20.7276C10.1484 20.8958 9.86217 20.9859 9.56891 20.9858H1.84007C5.73592 29.8761 14.7677 35.7149 18.0335 37.5864C18.633 37.9283 19.3113 38.108 20.0014 38.108C20.6916 38.108 21.3698 37.9283 21.9694 37.5864C25.2295 35.7178 34.2369 29.8961 38.1414 20.9858H29.441Z" fill="white"/>
</svg>