<svg xmlns="http://www.w3.org/2000/svg" width="100%" height="auto" viewBox="0 0 81 80" fill="none">
  <path d="M64.7857 45.8434L51.9763 62.1487C51.8598 62.2969 51.7131 62.4187 51.546 62.506C51.3789 62.5934 51.1952 62.6443 51.007 62.6554C50.8191 62.6642 50.6313 62.6342 50.4554 62.5675C50.2795 62.5008 50.1192 62.3986 49.9843 62.2674L48.1097 60.3927C47.9859 60.2689 47.8389 60.1707 47.6772 60.1037C47.5154 60.0367 47.3421 60.0023 47.167 60.0023C46.9919 60.0023 46.8186 60.0367 46.6568 60.1037C46.4951 60.1707 46.3481 60.2689 46.2243 60.3927C46.1005 60.5165 46.0023 60.6635 45.9354 60.8252C45.8684 60.987 45.8339 61.1603 45.8339 61.3354C45.8339 61.5105 45.8684 61.6838 45.9354 61.8456C46.0023 62.0073 46.1005 62.1543 46.2243 62.2781L50.2243 66.2781C50.3575 66.4111 50.5173 66.5145 50.6933 66.5814C50.8693 66.6482 51.0574 66.677 51.2453 66.666C51.4333 66.6549 51.6167 66.6041 51.7836 66.517C51.9505 66.43 52.0971 66.3085 52.2137 66.1607L66.8817 47.4927C66.99 47.3553 67.0701 47.1978 67.1175 47.0293C67.1649 46.8609 67.1786 46.6847 67.1577 46.5109C67.1369 46.3372 67.0821 46.1692 66.9962 46.0167C66.9104 45.8642 66.7954 45.7301 66.6577 45.6221C66.3796 45.4041 66.0265 45.3052 65.6757 45.3469C65.3249 45.3886 65.0049 45.5663 64.7857 45.8434ZM6.77768 29.3167C5.66656 30.0418 4.75425 31.033 4.12368 32.2003C3.4931 33.3676 3.16425 34.674 3.16701 36.0007C3.16701 38.0581 3.94568 40.0087 5.36034 41.4941C5.78034 41.9367 5.84701 42.6074 5.52168 43.1247C4.9828 43.9812 4.64606 44.9491 4.53703 45.9551C4.42799 46.961 4.54951 47.9786 4.89238 48.9306C5.23525 49.8826 5.79044 50.744 6.51585 51.4495C7.24126 52.1549 8.11781 52.6859 9.07901 53.0021C9.38635 53.1035 9.64633 53.3132 9.81045 53.5921C9.97457 53.871 10.0316 54.2002 9.97101 54.5181C9.87819 55.0068 9.83221 55.5033 9.83368 56.0007C9.82725 57.7048 10.3676 59.3661 11.3754 60.7403C12.3831 62.1145 13.8051 63.1293 15.4323 63.6354C15.6004 63.6877 15.7563 63.7728 15.8911 63.8859C16.0259 63.999 16.1369 64.1377 16.2177 64.2941C17.0006 65.8151 18.1882 67.0905 19.6497 67.9798C21.1111 68.8691 22.7896 69.3377 24.5003 69.3341C26.5177 69.3305 28.4797 68.6738 30.0927 67.4622C31.7057 66.2506 32.8829 64.5492 33.4483 62.6127C32.8246 60.4639 32.5054 58.2382 32.5003 56.0007C32.5003 53.2607 32.9843 50.6381 33.8337 48.1834V10.6674C33.8337 10.3138 33.9742 9.97463 34.2242 9.72458C34.4742 9.47453 34.8134 9.33406 35.167 9.33406C35.5206 9.33406 35.8598 9.47453 36.1098 9.72458C36.3599 9.97463 36.5003 10.3138 36.5003 10.6674V42.7634C40.803 36.2847 48.1577 32.0007 56.5003 32.0007C56.7137 32.0007 56.9203 32.0274 57.1337 32.0327C56.6693 31.2131 55.9957 30.5315 55.1816 30.0573C54.3676 29.5832 53.4424 29.3336 52.5003 29.3341C52.1467 29.3341 51.8076 29.1936 51.5575 28.9435C51.3075 28.6935 51.167 28.3543 51.167 28.0007C51.167 27.6471 51.3075 27.308 51.5575 27.0579C51.8076 26.8079 52.1467 26.6674 52.5003 26.6674C54.2058 26.6683 55.866 27.2162 57.2368 28.2307C58.6077 29.2452 59.617 30.6727 60.1163 32.3034C62.5523 32.6741 64.8643 33.4074 67.003 34.4541C66.8012 33.411 66.3923 32.4189 65.8005 31.5365C65.2088 30.6542 64.4461 29.8993 63.5577 29.3167C63.2691 29.1273 63.065 28.8336 62.9882 28.497C62.9114 28.1605 62.9678 27.8072 63.1457 27.5114C64.0305 26.0499 64.4994 24.3745 64.5017 22.6661C64.5017 17.5207 60.3137 13.3327 55.1683 13.3327C54.487 13.3327 53.8377 12.8194 53.763 12.1434C53.4792 9.53419 52.2398 7.12232 50.2836 5.37247C48.3274 3.62261 45.7929 2.65857 43.1683 2.66606C40.5437 2.66406 38.0114 3.63451 36.0603 5.39006C35.8155 5.61043 35.4978 5.73238 35.1683 5.73238C34.8389 5.73238 34.5212 5.61043 34.2763 5.39006C32.3253 3.63451 29.793 2.66406 27.1683 2.66606C24.5438 2.65886 22.0095 3.62301 20.0534 5.37281C18.0973 7.12261 16.8578 9.5343 16.5737 12.1434C16.5382 12.4701 16.3833 12.7722 16.1387 12.9917C15.8941 13.2112 15.577 13.3327 15.2483 13.3327C10.023 13.3327 5.83501 17.5207 5.83501 22.6661C5.83501 24.3661 6.30434 26.0421 7.19101 27.5114C7.36921 27.8072 7.42585 28.1605 7.34902 28.4971C7.27219 28.8338 7.06655 29.1276 6.77768 29.3167ZM43.167 14.6674C46.843 14.6674 49.8337 17.6581 49.8337 21.3341C49.8337 21.6877 49.6932 22.0268 49.4432 22.2769C49.1931 22.5269 48.854 22.6674 48.5003 22.6674C48.1467 22.6674 47.8076 22.5269 47.5575 22.2769C47.3075 22.0268 47.167 21.6877 47.167 21.3341C47.167 19.1287 45.3723 17.3341 43.167 17.3341C42.8134 17.3341 42.4743 17.1936 42.2242 16.9435C41.9742 16.6935 41.8337 16.3543 41.8337 16.0007C41.8337 15.6471 41.9742 15.308 42.2242 15.0579C42.4743 14.8079 42.8134 14.6674 43.167 14.6674ZM20.5003 52.0007C20.102 52.0012 19.7088 52.091 19.3497 52.2634C20.075 53.3301 20.5003 54.6167 20.5003 56.0007C20.5003 56.3544 20.3599 56.6935 20.1098 56.9435C19.8598 57.1936 19.5206 57.3341 19.167 57.3341C18.8134 57.3341 18.4742 57.1936 18.2242 56.9435C17.9742 56.6935 17.8337 56.3544 17.8337 56.0007C17.8337 53.7954 16.039 52.0007 13.8337 52.0007C13.4801 52.0007 13.1409 51.8603 12.8909 51.6102C12.6408 51.3602 12.5003 51.021 12.5003 50.6674C12.5003 50.3138 12.6408 49.9746 12.8909 49.7246C13.1409 49.4745 13.4801 49.3341 13.8337 49.3341C15.131 49.3341 16.3337 49.7221 17.359 50.3661C18.2699 49.6971 19.3702 49.3357 20.5003 49.3341C20.854 49.3341 21.1931 49.4745 21.4432 49.7246C21.6932 49.9746 21.8337 50.3138 21.8337 50.6674C21.8337 51.021 21.6932 51.3602 21.4432 51.6102C21.1931 51.8603 20.854 52.0007 20.5003 52.0007ZM27.167 14.6674C27.5206 14.6674 27.8598 14.8079 28.1098 15.0579C28.3599 15.308 28.5003 15.6471 28.5003 16.0007C28.5003 16.3543 28.3599 16.6935 28.1098 16.9435C27.8598 17.1936 27.5206 17.3341 27.167 17.3341C24.9617 17.3341 23.167 19.1287 23.167 21.3341C23.167 21.6877 23.0265 22.0268 22.7765 22.2769C22.5264 22.5269 22.1873 22.6674 21.8337 22.6674C21.4801 22.6674 21.1409 22.5269 20.8909 22.2769C20.6408 22.0268 20.5003 21.6877 20.5003 21.3341C20.5003 17.6581 23.491 14.6674 27.167 14.6674ZM20.5003 37.3341C21.7977 37.3341 23.0003 37.7221 24.0257 38.3661C24.9366 37.6971 26.0369 37.3357 27.167 37.3341C27.5206 37.3341 27.8598 37.4745 28.1098 37.7246C28.3599 37.9746 28.5003 38.3138 28.5003 38.6674C28.5003 39.021 28.3599 39.3602 28.1098 39.6102C27.8598 39.8603 27.5206 40.0007 27.167 40.0007C26.7687 40.0012 26.3755 40.091 26.0163 40.2634C26.7417 41.3301 27.167 42.6167 27.167 44.0007C27.167 44.3543 27.0265 44.6935 26.7765 44.9435C26.5264 45.1936 26.1873 45.3341 25.8337 45.3341C25.4801 45.3341 25.1409 45.1936 24.8909 44.9435C24.6408 44.6935 24.5003 44.3543 24.5003 44.0007C24.5003 41.7954 22.7057 40.0007 20.5003 40.0007C20.1467 40.0007 19.8076 39.8603 19.5575 39.6102C19.3075 39.3602 19.167 39.021 19.167 38.6674C19.167 38.3138 19.3075 37.9746 19.5575 37.7246C19.8076 37.4745 20.1467 37.3341 20.5003 37.3341ZM17.8337 26.6674C18.1873 26.6674 18.5264 26.8079 18.7765 27.0579C19.0265 27.308 19.167 27.6471 19.167 28.0007C19.167 28.3543 19.0265 28.6935 18.7765 28.9435C18.5264 29.1936 18.1873 29.3341 17.8337 29.3341C14.8923 29.3341 12.5003 31.7261 12.5003 34.6674C12.5003 35.021 12.3599 35.3602 12.1098 35.6102C11.8598 35.8603 11.5206 36.0007 11.167 36.0007C10.8134 36.0007 10.4742 35.8603 10.2242 35.6102C9.97415 35.3602 9.83368 35.021 9.83368 34.6674C9.83368 30.2554 13.4217 26.6674 17.8337 26.6674Z" fill="#09B2B5"/>
  <path d="M56.5003 34.668C44.7377 34.668 35.167 44.2386 35.167 56.0013C35.167 67.764 44.7377 77.3346 56.5003 77.3346C68.263 77.3346 77.8337 67.764 77.8337 56.0013C77.8337 44.2386 68.263 34.668 56.5003 34.668ZM68.9777 49.14L54.311 67.808C53.9614 68.2524 53.5216 68.6177 53.0205 68.8797C52.5194 69.1417 51.9685 69.2945 51.4041 69.3281C50.8396 69.3616 50.2745 69.275 49.7459 69.0742C49.2173 68.8733 48.7374 68.5626 48.3377 68.1626L44.339 64.164C42.779 62.604 42.779 60.068 44.339 58.508C45.899 56.948 48.435 56.948 49.995 58.508L50.807 59.32L62.6883 44.196C63.3449 43.3635 64.3047 42.8252 65.3574 42.6993C66.4102 42.5733 67.4699 42.8699 68.3043 43.524C68.7177 43.8482 69.063 44.2508 69.3206 44.7087C69.5782 45.1665 69.743 45.6707 69.8056 46.1923C69.8681 46.714 69.8272 47.2428 69.6851 47.7486C69.5431 48.2544 69.3027 48.7272 68.9777 49.14Z" fill="#09B2B5"/>
</svg>