<svg xmlns="http://www.w3.org/2000/svg" width="21" height="20" viewBox="0 0 21 20" fill="none">
  <path d="M18.2255 7.64992C17.9839 7.26659 17.7255 6.90825 17.4589 6.57492C17.1505 6.18325 16.5672 6.14992 16.2172 6.49992L13.7172 8.99992C13.9005 9.54992 13.9339 10.1833 13.7672 10.8416C13.4755 12.0166 12.5255 12.9666 11.3505 13.2583C10.6922 13.4249 10.0589 13.3916 9.50886 13.2083C9.50886 13.2083 8.31719 14.3999 7.45886 15.2583C7.04219 15.6749 7.17553 16.4083 7.73386 16.6249C8.62553 16.9666 9.55053 17.1416 10.5005 17.1416C11.9839 17.1416 13.4255 16.7083 14.7422 15.8999C16.0839 15.0666 17.2922 13.8416 18.2672 12.2833C19.0589 11.0249 19.0172 8.90825 18.2255 7.64992Z" fill="#666666"/>
  <path d="M12.1839 8.31621L8.81719 11.6829C8.39219 11.2495 8.11719 10.6495 8.11719 9.99954C8.11719 8.69121 9.18385 7.61621 10.5005 7.61621C11.1505 7.61621 11.7505 7.89121 12.1839 8.31621Z" fill="#666666"/>
  <path d="M15.7096 4.79173L12.8846 7.61673C12.2763 7.00007 11.4346 6.6334 10.5013 6.6334C8.63464 6.6334 7.13464 8.14173 7.13464 10.0001C7.13464 10.9334 7.50964 11.7751 8.11797 12.3834L5.3013 15.2084H5.29297C4.36797 14.4584 3.51797 13.5001 2.79297 12.3667C1.95964 11.0584 1.95964 8.9334 2.79297 7.62506C3.75964 6.1084 4.94297 4.91673 6.25964 4.10007C7.5763 3.30007 9.01797 2.8584 10.5013 2.8584C12.3596 2.8584 14.1596 3.54173 15.7096 4.79173Z" fill="#666666"/>
  <path d="M12.8844 10.0001C12.8844 11.3084 11.8177 12.3834 10.501 12.3834C10.451 12.3834 10.4094 12.3834 10.3594 12.3667L12.8677 9.8584C12.8844 9.9084 12.8844 9.95007 12.8844 10.0001Z" fill="#666666"/>
  <path d="M18.6427 1.8584C18.3927 1.6084 17.9844 1.6084 17.7344 1.8584L2.35938 17.2417C2.10937 17.4917 2.10937 17.9001 2.35938 18.1501C2.48438 18.2667 2.64271 18.3334 2.80938 18.3334C2.97604 18.3334 3.13437 18.2667 3.25938 18.1417L18.6427 2.7584C18.901 2.5084 18.901 2.1084 18.6427 1.8584Z" fill="#666666"/>
</svg>