<svg xmlns="http://www.w3.org/2000/svg" width="100%" height="auto" viewBox="0 0 81 80" fill="none">
  <g clip-path="url(#clip0_24417_6754)">
    <path d="M35.4657 15.8313C35.1074 15.8779 34.7791 16.0646 34.5674 16.3579C33.5758 17.7296 32.9758 19.3595 32.7491 21.0245C32.6558 21.6995 32.0661 22.1812 31.3858 22.1695C30.637 22.1567 29.9767 21.439 30.1108 20.6429C30.6542 16.7129 32.9375 12.948 36.6324 11.3014C37.304 11.0014 37.6057 10.2131 37.3057 9.53973C37.0057 8.86808 36.2174 8.56475 35.5457 8.86474C34.0658 9.52473 32.7341 10.4714 31.5958 11.6397C30.9825 6.21813 26.3776 1.9882 20.7993 1.96487C18.5527 1.95654 16.6678 3.80484 16.6678 6.05146C16.6678 11.6804 20.974 16.4219 26.6309 16.9196C27.4409 16.9913 28.0042 17.7612 27.8059 18.5496C27.7134 19.1049 27.1226 19.6429 26.3926 19.5795C23.2701 19.3067 20.4437 17.9722 18.2844 15.9413C18.1539 15.8185 18.0001 15.7232 17.832 15.661C17.6639 15.5989 17.4851 15.5712 17.3061 15.5796C8.08442 15.9933 2.67752 21.228 1.01305 30.0493C-0.67192 38.9542 1.9342 49.9416 6.76961 57.1472C10.3919 62.5429 15.3288 66.1253 21.7823 65.1744C22.2453 65.1062 22.6335 64.7914 22.8113 64.3585C27.684 52.4968 35.2242 41.8186 44.8372 33.2293C47.8775 30.5045 51.4164 29.0739 55.1609 28.995C56.0495 28.9764 56.6583 28.1014 56.3922 27.2532C53.3542 17.5701 45.3694 14.5378 35.4657 15.8313ZM14.8945 27.2177C10.6862 30.6627 10.5345 38.2759 12.2512 44.2907C12.4528 44.9991 12.0428 45.7357 11.3345 45.9391C10.6314 46.1412 9.89088 45.7334 9.68622 45.0224C7.78875 38.3679 7.87342 29.5192 13.2045 25.1544C13.7745 24.6878 14.6145 24.7711 15.0811 25.3411C15.5478 25.9111 15.4628 26.7511 14.8945 27.2177Z" fill="#09B2B5"/>
    <path d="M79.1783 38.4644C75.9833 38.4378 73.0584 39.0261 70.2651 40.2661C69.9001 39.7511 69.5101 39.2511 69.1018 38.7678C70.0968 37.2511 70.7601 35.6178 71.0818 33.9012C71.2184 33.1779 70.7401 32.4812 70.0168 32.3462C69.2935 32.2112 68.5968 32.6862 68.4618 33.4112C68.2418 34.5812 67.8202 35.7061 67.2002 36.7728C61.3726 31.3489 53.9734 29.7346 47.4775 34.5525C46.7485 35.0932 46.7557 36.1881 47.4967 36.7126C49.5028 38.1324 51.5045 39.7039 53.3291 41.4449C54.2026 42.2782 53.6009 43.7428 52.4086 43.7428C52.0658 43.7433 51.7361 43.6112 51.4885 43.3742C49.4797 41.4574 47.22 39.7412 44.9806 38.2098C44.4494 37.8466 43.7363 37.9161 43.2809 38.3709C41.8586 39.7912 40.4886 41.263 39.1737 42.7834C38.6709 43.3648 38.7615 44.2547 39.376 44.7166C41.6997 46.4623 43.8494 48.4282 45.7952 50.587C46.2451 51.0857 46.2879 51.8457 45.8561 52.36C45.7337 52.5071 45.5812 52.6262 45.4088 52.7092C45.2363 52.7921 45.0481 52.837 44.8568 52.8408C44.6655 52.8446 44.4756 52.8072 44.3001 52.7312C44.1245 52.6551 43.9673 52.5422 43.8393 52.4C41.9582 50.3092 39.8741 48.4105 37.6177 46.7318C37.0316 46.2953 36.2014 46.4216 35.7609 47.0048C34.4415 48.7517 33.192 50.5505 32.0155 52.3967C31.6532 52.9652 31.771 53.7101 32.2868 54.144C33.0803 54.8114 33.8455 55.5117 34.5806 56.2429C35.0648 56.7246 35.1551 57.4997 34.7364 58.0392C34.2349 58.6856 33.2991 58.7312 32.7373 58.1706C32.2598 57.6929 31.7678 57.23 31.262 56.7824C30.622 56.2166 29.6197 56.3908 29.2095 57.1401C26.8762 61.4008 24.9264 65.8607 23.3831 70.4668C22.0373 74.4866 25.3348 78.5082 29.548 77.9917C33.8246 77.4509 38.0519 76.5738 42.1906 75.3686C42.9496 75.1477 43.3566 74.3163 43.0549 73.5858C41.9004 70.7876 40.4798 68.1068 38.8125 65.5803C38.7139 65.4341 38.6453 65.2699 38.6106 65.0971C38.5759 64.9243 38.5757 64.7463 38.6102 64.5735C38.6448 64.4006 38.7132 64.2363 38.8116 64.0901C38.91 63.9439 39.0364 63.8186 39.1836 63.7215C39.3307 63.6245 39.4956 63.5576 39.6688 63.5246C39.8419 63.4917 40.0199 63.4935 40.1924 63.5298C40.3649 63.5661 40.5285 63.6362 40.6737 63.7362C40.8189 63.8361 40.9428 63.9638 41.0383 64.1119C42.8692 66.8867 44.4186 69.8373 45.6634 72.9198C45.9336 73.5879 46.6814 73.9251 47.3587 73.6788C51.9456 72.0095 56.3757 69.9373 60.5971 67.4866C60.8723 67.3271 61.0817 67.0749 61.1879 66.7752C61.294 66.4754 61.2901 66.1477 61.1766 65.8506C59.7261 62.0502 57.9149 58.3975 55.7679 54.9425C55.3821 54.3213 55.5184 53.4835 56.1269 53.0778C56.2755 52.9786 56.4426 52.9102 56.6181 52.8767C56.7937 52.8433 56.9742 52.8455 57.1489 52.8832C57.3236 52.9209 57.489 52.9933 57.6351 53.0961C57.7813 53.1989 57.9053 53.3301 57.9998 53.4818C60.0686 56.8042 61.8397 60.3029 63.2926 63.9371C63.6086 64.7273 64.5694 65.0331 65.2754 64.5579C66.4281 63.7824 67.5609 62.9775 68.6725 62.144C75.1083 57.3119 75.4978 49.4684 71.7024 42.5494C74.039 41.5727 76.4923 41.1202 79.1556 41.131C79.9219 41.1342 80.4941 40.5242 80.5006 39.8094C80.5035 39.4557 80.3659 39.1154 80.1179 38.8631C79.8699 38.6109 79.532 38.4675 79.1783 38.4644ZM49.7748 64.7989C49.1257 65.1524 48.317 64.9101 47.966 64.2658C47.5153 63.4383 47.0406 62.624 46.5426 61.824C46.36 61.5239 46.3033 61.1639 46.3846 60.8222C46.466 60.4806 46.6789 60.1848 46.977 59.9991C47.2752 59.8135 47.6345 59.7529 47.977 59.8307C48.3195 59.9084 48.6176 60.1182 48.8063 60.4144C49.3317 61.2584 49.8325 62.1174 50.308 62.9905C50.4771 63.301 50.5159 63.666 50.4159 64.0051C50.3159 64.3443 50.0853 64.6298 49.7748 64.7989Z" fill="#09B2B5"/>
  </g>
  <defs>
    <clipPath id="clip0_24417_6754">
      <rect width="80" height="80" fill="white" transform="translate(0.5)"/>
    </clipPath>
  </defs>
</svg>