<svg xmlns="http://www.w3.org/2000/svg" width="33" height="33" viewBox="0 0 33 33" fill="none">
  <g clip-path="url(#clip0_24237_8639)">
    <path d="M29.3227 4.66163L16.7707 0.896007C16.595 0.843258 16.4077 0.843258 16.232 0.896007L3.67984 4.66163C3.48673 4.71956 3.31744 4.83821 3.19708 4.99996C3.07673 5.16171 3.01172 5.35795 3.01172 5.55957V19.3668C3.01172 21.1627 3.73872 23.0011 5.17253 24.8309C6.26766 26.2284 7.78266 27.6317 9.67553 29.0019C12.8553 31.3036 15.9865 32.7156 16.1182 32.7746C16.2387 32.8285 16.3693 32.8564 16.5013 32.8564C16.6333 32.8564 16.7638 32.8285 16.8843 32.7746C17.0161 32.7156 20.1472 31.3036 23.327 29.0019C25.2198 27.6317 26.7348 26.2284 27.8299 24.8309C29.2637 23.0011 29.9907 21.1628 29.9907 19.3668V5.55957C29.9908 5.35796 29.9258 5.16171 29.8055 4.99995C29.6851 4.83819 29.5158 4.71955 29.3227 4.66163ZM28.1158 19.3668C28.1158 22.5451 24.9268 25.5252 22.2517 27.4656C19.8533 29.2052 17.421 30.4396 16.5013 30.883C15.5817 30.4396 13.1493 29.2052 10.751 27.4656C8.07572 25.5252 4.88672 22.5451 4.88672 19.3668V6.25707L16.5013 2.77269L28.1158 6.25707V19.3668Z" fill="#48BB78"/>
  </g>
  <defs>
    <clipPath id="clip0_24237_8639">
      <rect width="32" height="32" fill="white" transform="translate(0.5 0.856445)"/>
    </clipPath>
  </defs>
</svg>