<svg xmlns="http://www.w3.org/2000/svg" width="100%" height="auto" viewBox="0 0 81 80" fill="none">
  <g clip-path="url(#clip0_24417_6789)">
    <path d="M40.5 80C32.5888 80 24.8552 77.6541 18.2772 73.2588C11.6992 68.8635 6.57234 62.6164 3.54484 55.3074C0.517331 47.9983 -0.274802 39.9556 1.26861 32.1964C2.81202 24.4372 6.62165 17.3098 12.2157 11.7157C17.8098 6.12165 24.9372 2.31202 32.6964 0.768607C40.4556 -0.774802 48.4983 0.0173312 55.8074 3.04484C63.1164 6.07234 69.3635 11.1992 73.7588 17.7772C78.1541 24.3552 80.5 32.0888 80.5 40C80.4881 50.605 76.27 60.7723 68.7711 68.2711C61.2723 75.77 51.105 79.9881 40.5 80ZM40.5 2.50002C33.0832 2.50002 25.833 4.69935 19.6661 8.81991C13.4993 12.9405 8.69282 18.7972 5.85454 25.6494C3.01625 32.5016 2.27362 40.0416 3.72057 47.3159C5.16752 54.5902 8.73904 61.2721 13.9835 66.5165C19.228 71.761 25.9098 75.3325 33.1841 76.7795C40.4584 78.2264 47.9984 77.4838 54.8506 74.6455C61.7029 71.8072 67.5596 67.0007 71.6801 60.8339C75.8007 54.6671 78 47.4168 78 40C77.9888 30.0579 74.0343 20.5261 67.0041 13.4959C59.9739 6.46576 50.4422 2.51127 40.5 2.50002Z" fill="#09B2B5"/>
    <path d="M1.75 41.25H79.25V43.75H1.75V41.25Z" fill="#09B2B5"/>
    <path d="M3.00039 48.75C5.31088 48.6955 7.60482 49.1527 9.71789 50.0887C11.5346 50.9025 13.5104 51.2992 15.5004 51.25C17.4929 51.2999 19.4713 50.9032 21.2904 50.0887C23.4045 49.1518 25.6999 48.6946 28.0116 48.75C30.3205 48.6955 32.6128 49.1527 34.7241 50.0887C36.5415 50.9031 38.5183 51.2999 40.5091 51.25C42.5004 51.2999 44.4776 50.9031 46.2954 50.0887C48.4076 49.1526 50.7007 48.6955 53.0104 48.75C55.3193 48.6955 57.6116 49.1527 59.7229 50.0887C61.5398 50.9033 63.5162 51.3001 65.5066 51.25C67.4965 51.2996 69.4723 50.9033 71.2891 50.09C73.3997 49.1529 75.6918 48.6952 78.0004 48.75V49.7775C78.6187 47.3942 79.008 44.9573 79.1629 42.5H1.83789C1.9928 44.9573 2.38207 47.3942 3.00039 49.7775V48.75Z" fill="#09B2B5"/>
    <path d="M72.218 52.41C70.1074 53.3471 67.8153 53.8048 65.5067 53.75C63.1977 53.8049 60.9052 53.3473 58.7942 52.41C56.9769 51.5969 55.0008 51.2006 53.0105 51.25C51.0192 51.2 49.042 51.5968 47.2242 52.4112C45.112 53.3474 42.8189 53.8045 40.5092 53.75C38.1998 53.8051 35.9068 53.3475 33.7955 52.41C31.9783 51.5966 30.002 51.2003 28.0117 51.25C26.0196 51.2 24.0417 51.5968 22.223 52.4112C20.1084 53.3482 17.8126 53.8054 15.5005 53.75C13.1904 53.8044 10.8969 53.3472 8.78422 52.4112C7.09487 51.6589 5.26727 51.2668 3.41797 51.26C5.83328 59.2122 10.7413 66.1772 17.4176 71.1268C24.0938 76.0765 32.1846 78.7485 40.4955 78.7485C48.8064 78.7485 56.8971 76.0765 63.5734 71.1268C70.2496 66.1772 75.1577 59.2122 77.573 51.26C75.7275 51.2678 73.9039 51.6594 72.218 52.41ZM16.7505 60H14.2505C13.9189 60 13.601 59.8683 13.3666 59.6339C13.1322 59.3995 13.0005 59.0815 13.0005 58.75C13.0005 58.4185 13.1322 58.1005 13.3666 57.8661C13.601 57.6317 13.9189 57.5 14.2505 57.5H16.7505C17.082 57.5 17.3999 57.6317 17.6344 57.8661C17.8688 58.1005 18.0005 58.4185 18.0005 58.75C18.0005 59.0815 17.8688 59.3995 17.6344 59.6339C17.3999 59.8683 17.082 60 16.7505 60ZM23.0005 66.25H20.5005C20.1689 66.25 19.851 66.1183 19.6166 65.8839C19.3822 65.6495 19.2505 65.3315 19.2505 65C19.2505 64.6685 19.3822 64.3505 19.6166 64.1161C19.851 63.8817 20.1689 63.75 20.5005 63.75H23.0005C23.332 63.75 23.6499 63.8817 23.8844 64.1161C24.1188 64.3505 24.2505 64.6685 24.2505 65C24.2505 65.3315 24.1188 65.6495 23.8844 65.8839C23.6499 66.1183 23.332 66.25 23.0005 66.25ZM29.2505 72.5H26.7505C26.4189 72.5 26.101 72.3683 25.8666 72.1339C25.6322 71.8995 25.5005 71.5815 25.5005 71.25C25.5005 70.9185 25.6322 70.6005 25.8666 70.3661C26.101 70.1317 26.4189 70 26.7505 70H29.2505C29.582 70 29.8999 70.1317 30.1344 70.3661C30.3688 70.6005 30.5005 70.9185 30.5005 71.25C30.5005 71.5815 30.3688 71.8995 30.1344 72.1339C29.8999 72.3683 29.582 72.5 29.2505 72.5ZM29.2505 60H26.7505C26.4189 60 26.101 59.8683 25.8666 59.6339C25.6322 59.3995 25.5005 59.0815 25.5005 58.75C25.5005 58.4185 25.6322 58.1005 25.8666 57.8661C26.101 57.6317 26.4189 57.5 26.7505 57.5H29.2505C29.582 57.5 29.8999 57.6317 30.1344 57.8661C30.3688 58.1005 30.5005 58.4185 30.5005 58.75C30.5005 59.0815 30.3688 59.3995 30.1344 59.6339C29.8999 59.8683 29.582 60 29.2505 60ZM35.5005 66.25H33.0005C32.6689 66.25 32.351 66.1183 32.1166 65.8839C31.8822 65.6495 31.7505 65.3315 31.7505 65C31.7505 64.6685 31.8822 64.3505 32.1166 64.1161C32.351 63.8817 32.6689 63.75 33.0005 63.75H35.5005C35.832 63.75 36.1499 63.8817 36.3844 64.1161C36.6188 64.3505 36.7505 64.6685 36.7505 65C36.7505 65.3315 36.6188 65.6495 36.3844 65.8839C36.1499 66.1183 35.832 66.25 35.5005 66.25ZM41.7505 72.5H39.2505C38.9189 72.5 38.601 72.3683 38.3666 72.1339C38.1322 71.8995 38.0005 71.5815 38.0005 71.25C38.0005 70.9185 38.1322 70.6005 38.3666 70.3661C38.601 70.1317 38.9189 70 39.2505 70H41.7505C42.082 70 42.3999 70.1317 42.6344 70.3661C42.8688 70.6005 43.0005 70.9185 43.0005 71.25C43.0005 71.5815 42.8688 71.8995 42.6344 72.1339C42.3999 72.3683 42.082 72.5 41.7505 72.5ZM41.7505 60H39.2505C38.9189 60 38.601 59.8683 38.3666 59.6339C38.1322 59.3995 38.0005 59.0815 38.0005 58.75C38.0005 58.4185 38.1322 58.1005 38.3666 57.8661C38.601 57.6317 38.9189 57.5 39.2505 57.5H41.7505C42.082 57.5 42.3999 57.6317 42.6344 57.8661C42.8688 58.1005 43.0005 58.4185 43.0005 58.75C43.0005 59.0815 42.8688 59.3995 42.6344 59.6339C42.3999 59.8683 42.082 60 41.7505 60ZM48.0005 66.25H45.5005C45.1689 66.25 44.851 66.1183 44.6166 65.8839C44.3822 65.6495 44.2505 65.3315 44.2505 65C44.2505 64.6685 44.3822 64.3505 44.6166 64.1161C44.851 63.8817 45.1689 63.75 45.5005 63.75H48.0005C48.332 63.75 48.6499 63.8817 48.8844 64.1161C49.1188 64.3505 49.2505 64.6685 49.2505 65C49.2505 65.3315 49.1188 65.6495 48.8844 65.8839C48.6499 66.1183 48.332 66.25 48.0005 66.25ZM54.2505 72.5H51.7505C51.4189 72.5 51.101 72.3683 50.8666 72.1339C50.6322 71.8995 50.5005 71.5815 50.5005 71.25C50.5005 70.9185 50.6322 70.6005 50.8666 70.3661C51.101 70.1317 51.4189 70 51.7505 70H54.2505C54.582 70 54.8999 70.1317 55.1344 70.3661C55.3688 70.6005 55.5005 70.9185 55.5005 71.25C55.5005 71.5815 55.3688 71.8995 55.1344 72.1339C54.8999 72.3683 54.582 72.5 54.2505 72.5ZM54.2505 60H51.7505C51.4189 60 51.101 59.8683 50.8666 59.6339C50.6322 59.3995 50.5005 59.0815 50.5005 58.75C50.5005 58.4185 50.6322 58.1005 50.8666 57.8661C51.101 57.6317 51.4189 57.5 51.7505 57.5H54.2505C54.582 57.5 54.8999 57.6317 55.1344 57.8661C55.3688 58.1005 55.5005 58.4185 55.5005 58.75C55.5005 59.0815 55.3688 59.3995 55.1344 59.6339C54.8999 59.8683 54.582 60 54.2505 60ZM60.5005 66.25H58.0005C57.6689 66.25 57.351 66.1183 57.1166 65.8839C56.8822 65.6495 56.7505 65.3315 56.7505 65C56.7505 64.6685 56.8822 64.3505 57.1166 64.1161C57.351 63.8817 57.6689 63.75 58.0005 63.75H60.5005C60.832 63.75 61.1499 63.8817 61.3844 64.1161C61.6188 64.3505 61.7505 64.6685 61.7505 65C61.7505 65.3315 61.6188 65.6495 61.3844 65.8839C61.1499 66.1183 60.832 66.25 60.5005 66.25ZM66.7505 60H64.2505C63.9189 60 63.601 59.8683 63.3666 59.6339C63.1322 59.3995 63.0005 59.0815 63.0005 58.75C63.0005 58.4185 63.1322 58.1005 63.3666 57.8661C63.601 57.6317 63.9189 57.5 64.2505 57.5H66.7505C67.082 57.5 67.3999 57.6317 67.6344 57.8661C67.8688 58.1005 68.0005 58.4185 68.0005 58.75C68.0005 59.0815 67.8688 59.3995 67.6344 59.6339C67.3999 59.8683 67.082 60 66.7505 60ZM40.5005 8.75C39.2505 8.75 34.2505 16.5487 34.2505 20C34.2505 21.6576 34.9089 23.2473 36.0811 24.4194C37.2532 25.5915 38.8429 26.25 40.5005 26.25C42.1581 26.25 43.7478 25.5915 44.9199 24.4194C46.092 23.2473 46.7505 21.6576 46.7505 20C46.7505 16.5487 41.7505 8.75 40.5005 8.75ZM40.5005 23.75C40.1689 23.75 39.851 23.6183 39.6166 23.3839C39.3822 23.1495 39.2505 22.8315 39.2505 22.5C39.2505 22.1685 39.3822 21.8505 39.6166 21.6161C39.851 21.3817 40.1689 21.25 40.5005 21.25C40.832 21.25 41.1499 21.1183 41.3844 20.8839C41.6188 20.6495 41.7505 20.3315 41.7505 20C41.7505 19.6685 41.8822 19.3505 42.1166 19.1161C42.351 18.8817 42.6689 18.75 43.0005 18.75C43.332 18.75 43.6499 18.8817 43.8844 19.1161C44.1188 19.3505 44.2505 19.6685 44.2505 20C44.2505 20.9946 43.8554 21.9484 43.1521 22.6516C42.4489 23.3549 41.495 23.75 40.5005 23.75ZM58.0005 11.25C56.7505 11.25 51.7505 19.0487 51.7505 22.5C51.7505 24.1576 52.409 25.7473 53.5811 26.9194C54.7532 28.0915 56.3429 28.75 58.0005 28.75C59.6581 28.75 61.2478 28.0915 62.4199 26.9194C63.592 25.7473 64.2505 24.1576 64.2505 22.5C64.2505 19.0487 59.2505 11.25 58.0005 11.25ZM58.0005 26.25C57.6689 26.25 57.351 26.1183 57.1166 25.8839C56.8822 25.6495 56.7505 25.3315 56.7505 25C56.7505 24.6685 56.8822 24.3505 57.1166 24.1161C57.351 23.8817 57.6689 23.75 58.0005 23.75C58.332 23.75 58.6499 23.6183 58.8844 23.3839C59.1188 23.1495 59.2505 22.8315 59.2505 22.5C59.2505 22.1685 59.3822 21.8505 59.6166 21.6161C59.851 21.3817 60.1689 21.25 60.5005 21.25C60.832 21.25 61.1499 21.3817 61.3844 21.6161C61.6188 21.8505 61.7505 22.1685 61.7505 22.5C61.7505 23.4946 61.3554 24.4484 60.6521 25.1516C59.9489 25.8549 58.995 26.25 58.0005 26.25ZM23.0005 12.5C21.7505 12.5 16.7505 20.2987 16.7505 23.75C16.7505 25.4076 17.4089 26.9973 18.5811 28.1694C19.7532 29.3415 21.3429 30 23.0005 30C24.6581 30 26.2478 29.3415 27.4199 28.1694C28.592 26.9973 29.2505 25.4076 29.2505 23.75C29.2505 20.2987 24.2505 12.5 23.0005 12.5ZM23.0005 27.5C22.6689 27.5 22.351 27.3683 22.1166 27.1339C21.8822 26.8995 21.7505 26.5815 21.7505 26.25C21.7505 25.9185 21.8822 25.6005 22.1166 25.3661C22.351 25.1317 22.6689 25 23.0005 25C23.332 25 23.6499 24.8683 23.8844 24.6339C24.1188 24.3995 24.2505 24.0815 24.2505 23.75C24.2505 23.4185 24.3822 23.1005 24.6166 22.8661C24.851 22.6317 25.1689 22.5 25.5005 22.5C25.832 22.5 26.1499 22.6317 26.3844 22.8661C26.6188 23.1005 26.7505 23.4185 26.7505 23.75C26.7505 24.7446 26.3554 25.6984 25.6521 26.4016C24.9489 27.1049 23.995 27.5 23.0005 27.5ZM5.50047 40C5.2273 40.0003 4.96156 39.9111 4.7439 39.746C4.52623 39.581 4.36863 39.3491 4.2952 39.086C4.22177 38.8229 4.23654 38.543 4.33727 38.2891C4.438 38.0351 4.61914 37.8212 4.85297 37.68C5.37547 37.3662 17.8317 30 40.5005 30C63.1692 30 75.6255 37.3662 76.1467 37.68C76.4226 37.8549 76.6191 38.131 76.694 38.449C76.769 38.767 76.7164 39.1017 76.5476 39.3815C76.3788 39.6612 76.1072 39.8637 75.7909 39.9457C75.4747 40.0277 75.1389 39.9825 74.8555 39.82C74.7342 39.75 62.4142 32.5 40.5005 32.5C18.5217 32.5 6.26797 39.75 6.14672 39.82C5.95191 39.9382 5.72832 40.0005 5.50047 40Z" fill="#09B2B5"/>
  </g>
  <defs>
    <clipPath id="clip0_24417_6789">
      <rect width="80" height="80" fill="white" transform="translate(0.5)"/>
    </clipPath>
  </defs>
</svg>