<svg xmlns="http://www.w3.org/2000/svg" width="100%" height="auto" viewBox="0 0 81 80" fill="none">
  <g clip-path="url(#clip0_24417_6771)">
    <path d="M68.425 48.9451C68.425 42.8298 63.4499 37.8546 57.3349 37.8539H57.3327C51.2177 37.8546 46.2429 42.8298 46.2429 48.9451C46.2429 55.0605 51.2177 60.0355 57.3327 60.0362H57.3349C63.4501 60.0356 68.425 55.0605 68.425 48.9451ZM57.3338 53.0725C55.058 53.0725 53.2064 51.2208 53.2064 48.9451C53.2064 46.6694 55.058 44.8178 57.3338 44.8178C59.6095 44.8178 61.4611 46.6693 61.4611 48.9451C61.4611 51.221 59.6096 53.0725 57.3338 53.0725ZM59.4098 48.9451C59.4098 50.0899 58.4785 51.0212 57.3338 51.0212C56.189 51.0212 55.2577 50.0899 55.2577 48.9451C55.2577 47.8004 56.189 46.8691 57.3338 46.8691C58.4785 46.8691 59.4098 47.8004 59.4098 48.9451ZM11.4114 38.9143V28.5029H1V20.0151H11.4114V9.60373H19.8992V20.0151H30.3105V28.5029H19.8992V38.9143H11.4114ZM50.4427 60.1298C47.8463 62.4214 44.0535 65.3804 40.4826 67.4395C29.7834 61.3498 21.821 52.2198 17.384 40.9655H20.0983C21.1195 40.9655 21.9503 40.1348 21.9503 39.1136V30.5542H30.5097C31.5309 30.5542 32.3616 29.7234 32.3616 28.7022V19.816C32.3616 18.7948 31.5309 17.964 30.5097 17.964H21.9503V14.1543C29.9747 13.6015 36.0572 10.6 40.4836 5C43.4029 8.70476 46.9747 11.2321 51.3644 12.7063C55.8461 14.2116 61.1891 14.6133 67.6701 13.9288C68.0489 21.9749 66.9417 30.228 64.4588 37.9107C62.6299 36.724 60.5328 36.0144 58.359 35.8466V29.5759C60.7125 29.1357 62.4999 27.0675 62.4999 24.5882C62.4999 21.7898 60.2231 19.5131 57.4245 19.5131C54.6259 19.5131 52.3492 21.7898 52.3492 24.5882C52.3492 27.0031 54.0449 29.0282 56.3079 29.5383V35.8466C54.0815 36.018 51.9362 36.7577 50.0772 37.9948L49.1579 36.8184C50.667 35.2292 51.1138 32.8053 50.0942 30.7249C48.7848 28.0537 45.5463 26.9456 42.8752 28.2549C40.204 29.5643 39.0959 32.8025 40.4052 35.4738C41.3412 37.3833 43.2626 38.4939 45.2583 38.4939C46.0264 38.4932 46.7855 38.3274 47.4839 38.0076L48.4619 39.2589C46.0757 41.4464 44.5005 44.5017 44.2352 47.9195H38.0139C37.5566 46.1383 35.9377 44.818 34.0158 44.818C31.7401 44.818 29.8885 46.6694 29.8885 48.9453C29.8885 51.2212 31.7399 53.0726 34.0158 53.0726C35.9377 53.0726 37.5568 51.7521 38.0141 49.9708H44.2352C44.3545 51.5199 44.7496 53.0352 45.4021 54.4453L44.1012 55.0097C43.6496 54.4248 43.0483 53.9729 42.3609 53.7018C41.3354 53.2971 40.2139 53.3157 39.2024 53.7547C37.1148 54.6606 36.1534 57.096 37.0592 59.1837C37.7337 60.738 39.2558 61.6679 40.8511 61.6679C41.3987 61.6679 41.9549 61.5584 42.4882 61.3269C42.9863 61.1125 43.4368 60.8013 43.8137 60.4115C44.1907 60.0218 44.4866 59.5611 44.6843 59.0562C44.9575 58.3686 45.0397 57.6199 44.9222 56.8893L46.4106 56.2435C47.4624 57.8115 48.837 59.1366 50.4427 60.1298ZM57.4245 27.6123C55.757 27.6123 54.4004 26.2556 54.4004 24.5882C54.4004 22.9209 55.7572 21.5643 57.4245 21.5643C59.0919 21.5643 60.4486 22.9209 60.4486 24.5882C60.4486 26.2556 59.0919 27.6123 57.4245 27.6123ZM48.2521 31.6277C49.0637 33.2834 48.3769 35.2905 46.7212 36.102C45.0651 36.9136 43.0583 36.2268 42.2469 34.5711C41.4352 32.9153 42.1221 30.9082 43.7778 30.0967C44.234 29.8724 44.7357 29.7557 45.2441 29.7557C46.4808 29.7557 47.6721 30.4443 48.2521 31.6277ZM34.0156 46.8694C35.1604 46.8694 36.0917 47.8007 36.0917 48.9455C36.0917 50.0903 35.1604 51.0215 34.0156 51.0215C32.8709 51.0215 31.9396 50.0903 31.9396 48.9455C31.9396 47.8007 32.8709 46.8694 34.0156 46.8694ZM42.7496 56.7146C42.9703 57.2234 42.9797 57.7875 42.7761 58.3032C42.5725 58.8189 42.1802 59.2245 41.6715 59.4454C40.6212 59.9009 39.3963 59.4174 38.9407 58.3673C38.485 57.3172 38.9688 56.0923 40.0188 55.6365C40.2794 55.5229 40.5605 55.4642 40.8447 55.4639C41.1024 55.4639 41.3605 55.5126 41.6074 55.61C41.8614 55.7095 42.0931 55.8583 42.2892 56.0479C42.4852 56.2375 42.6417 56.4641 42.7496 56.7146ZM70.0051 52.4239L73.0641 53.5097L72.6275 55.5314L69.3073 54.3528L70.0053 52.4239H70.0051ZM65.7634 62.0006L63.993 63.0367L62.7513 60.9143L64.5477 59.9228L65.7634 62.0008V62.0006ZM56.3079 62.0437H58.3592V68.2648H56.3079V62.0437ZM72.0434 41.3842L69.1757 43.2476L68.1383 41.4753L70.9533 39.6461L72.0434 41.384V41.3842ZM80.3081 57.0999C79.462 58.5363 77.605 59.0165 76.1685 58.1704C75.8257 57.9697 75.5261 57.703 75.2871 57.3858C75.0481 57.0685 74.8744 56.707 74.776 56.3222C74.6755 55.9379 74.6522 55.5375 74.7075 55.1441C74.7628 54.7508 74.8955 54.3723 75.0981 54.0306C75.6611 53.0748 76.6717 52.5424 77.7083 52.5424C78.2295 52.5424 78.7574 52.6771 79.2379 52.9601C80.6743 53.8063 81.1544 55.6634 80.3083 57.0999H80.3081ZM68.6894 64.9207C69.2675 65.9088 68.934 67.1829 67.946 67.7611C67.7109 67.8993 67.4508 67.9897 67.1806 68.0268C66.9105 68.064 66.6356 68.0473 66.372 67.9776C66.1079 67.9093 65.8601 67.7893 65.6427 67.6246C65.4254 67.4598 65.2429 67.2536 65.1058 67.0178C64.5277 66.0298 64.8612 64.7556 65.8493 64.1775C66.166 63.9916 66.5267 63.8937 66.894 63.8937C67.6079 63.8937 68.3036 64.2616 68.6894 64.9209V64.9207ZM80.8573 38.2934C80.5676 39.3891 79.8683 40.3062 78.8886 40.876C76.8663 42.0525 74.2641 41.364 73.0877 39.3414C72.5179 38.3618 72.3637 37.2189 72.6535 36.1232C72.9432 35.0275 73.6425 34.1104 74.6222 33.5405C75.2787 33.1586 76.0085 32.9634 76.7483 32.9634C77.1124 32.9634 77.4789 33.0107 77.8404 33.1063C78.9362 33.396 79.8532 34.0953 80.423 35.075C80.9927 36.0546 81.1469 37.1975 80.8572 38.2933L80.8573 38.2934ZM59.4098 72.2631C59.4098 73.4079 58.4785 74.3391 57.3338 74.3391C56.189 74.3391 55.2577 73.4079 55.2577 72.2631C55.2577 71.1183 56.189 70.187 57.3338 70.187C58.4785 70.187 59.4098 71.1183 59.4098 72.2631Z" fill="#09B2B5"/>
  </g>
  <defs>
    <clipPath id="clip0_24417_6771">
      <rect width="80" height="80" fill="white" transform="translate(0.5)"/>
    </clipPath>
  </defs>
</svg>