<svg xmlns="http://www.w3.org/2000/svg" width="40" height="40" viewBox="0 0 40 40" fill="none">
  <path d="M34.7499 21.663C32.3591 23.8663 29.1086 25.3191 25.7336 25.8349V35.4671H32.9687C36.8357 35.4671 39.9996 32.3035 39.9996 28.4363C39.9996 25.1787 37.7731 22.4367 34.7499 21.663ZM19.9217 26.0927C19.3826 26.0927 18.867 25.9755 18.3981 25.7412C17.695 25.3896 17.1091 24.8272 16.7578 24.1006C16.4089 23.3338 16.2574 22.2468 16.1951 21.4052C12.3213 21.5129 9.32812 24.675 9.32812 28.4363C9.32812 32.3774 12.5589 35.4671 16.3589 35.4671H23.3899V26.0693C23.1793 26.0927 22.9681 26.0927 22.7572 26.0927H19.9217ZM22.6634 6.28898C21.6347 7.07952 20.7061 7.99244 19.8982 9.00757C18.164 11.1402 16.9922 13.6247 16.4529 16.2493C14.7186 13.9291 13.7577 11.1168 13.7577 8.14068V6.1718C13.7577 5.51534 14.2736 5 14.9295 5H16.8984C18.9139 5 20.8825 5.44529 22.6634 6.28898ZM36.3269 5H33.1865C28.7102 5 24.5383 6.99206 21.726 10.4609C18.9491 13.9277 17.9635 18.1974 18.6793 22.1789C19.1207 21.7377 26.373 14.4855 26.1322 14.7262C26.5538 14.2575 27.3509 14.2572 27.7727 14.7262C28.2415 15.1476 28.2417 15.9446 27.7727 16.3665C27.5353 16.6038 20.0962 24.0433 20.3904 23.7491C25.4846 23.7491 30.2128 23.3734 34.1474 18.6869C36.3272 16.0386 37.499 12.7808 37.499 9.31249V6.1718C37.4987 5.51534 36.9834 5 36.3269 5Z" fill="white"/>
  <path d="M10.0763 21.4753C8.17778 23.1862 6.98273 25.6701 6.98273 28.4358C6.98273 30.8732 7.92017 33.1936 9.58444 34.9042C8.77191 35.2294 7.90479 35.3965 7.0296 35.3966C5.22484 35.3966 3.41582 34.717 2.05628 33.3573C-0.685427 30.6154 -0.685427 26.1389 2.05628 23.3968L7.05304 18.405L10.0763 21.4753ZM15.8184 19.0846C14.4588 19.1552 13.1698 19.5301 12.0452 20.116L8.69356 16.7644L12.2324 13.2256C12.9826 15.4054 14.1779 17.4209 15.8184 19.0846Z" fill="white"/>
</svg>