<svg xmlns="http://www.w3.org/2000/svg" width="36" height="36" viewBox="0 0 36 36" fill="none">
  <path d="M27.675 16.0875C27.45 15.8063 27.1125 15.6938 26.7188 15.6938C25.9875 15.6938 25.3687 16.3125 25.3687 17.0438V19.5188C25.3687 20.25 25.9875 20.8688 26.7188 20.8688C27.45 20.8688 28.0688 20.25 28.0688 19.5188V17.0438C28.0688 16.65 27.9563 16.3125 27.675 16.0875ZM27.675 16.0875C27.45 15.8063 27.1125 15.6938 26.7188 15.6938C25.9875 15.6938 25.3687 16.3125 25.3687 17.0438V19.5188C25.3687 20.25 25.9875 20.8688 26.7188 20.8688C27.45 20.8688 28.0688 20.25 28.0688 19.5188V17.0438C28.0688 16.65 27.9563 16.3125 27.675 16.0875ZM33.1875 10.6313H2.8125C1.85625 10.6313 1.125 11.3625 1.125 12.3188V15.8063C1.125 16.7625 1.85625 17.4938 2.8125 17.4938H5.11875C5.4 17.4938 5.68125 17.775 5.68125 18.0563C5.68125 18.3938 5.4 18.6188 5.11875 18.6188H2.53125V29.8688C2.53125 30.825 3.31875 31.5563 4.21875 31.5563H31.8375C32.7937 31.5563 33.525 30.825 33.525 29.8688V18.5625H30.9375C30.6562 18.5625 30.375 18.3375 30.375 18C30.375 17.7188 30.6562 17.4375 30.9375 17.4375H33.1875C34.0875 17.4375 34.875 16.7063 34.875 15.75V12.2625C34.875 11.4188 34.0875 10.6313 33.1875 10.6313ZM11.7 19.4625C11.7 20.8125 10.575 21.9375 9.225 21.9375C7.875 21.9375 6.75 20.8125 6.75 19.4625V16.9875C6.75 15.6375 7.875 14.5125 9.225 14.5125C9.9 14.5125 10.5188 14.7938 10.9688 15.2438C11.4187 15.6938 11.7 16.3125 11.7 16.9875V19.4625ZM22.6125 18.6188H13.3875C13.1062 18.6188 12.825 18.3938 12.825 18.0563C12.825 17.775 13.1062 17.4938 13.3875 17.4938H22.6125C22.8938 17.4938 23.175 17.775 23.175 18.0563C23.175 18.3375 22.8938 18.6188 22.6125 18.6188ZM29.1938 19.4625C29.1938 20.8125 28.0688 21.9375 26.7188 21.9375C25.3687 21.9375 24.2437 20.8125 24.2437 19.4625V16.9875C24.2437 15.6375 25.3687 14.5125 26.7188 14.5125C27.3937 14.5125 28.0125 14.7938 28.4625 15.2438C28.9125 15.6938 29.1938 16.3125 29.1938 16.9875V19.4625ZM26.7188 15.6938C25.9875 15.6938 25.3687 16.3125 25.3687 17.0438V19.5188C25.3687 20.25 25.9875 20.8688 26.7188 20.8688C27.45 20.8688 28.0688 20.25 28.0688 19.5188V17.0438C28.0688 16.7063 27.9 16.3688 27.675 16.0875C27.45 15.8063 27.1125 15.6938 26.7188 15.6938ZM9.225 15.6938C8.49375 15.6938 7.875 16.3125 7.875 17.0438V19.5188C7.875 20.25 8.49375 20.8688 9.225 20.8688C9.95625 20.8688 10.575 20.25 10.575 19.5188V17.0438C10.575 16.7063 10.4062 16.3688 10.1813 16.0875C9.95625 15.8063 9.61875 15.6938 9.225 15.6938ZM27.675 16.0875C27.45 15.8063 27.1125 15.6938 26.7188 15.6938C25.9875 15.6938 25.3687 16.3125 25.3687 17.0438V19.5188C25.3687 20.25 25.9875 20.8688 26.7188 20.8688C27.45 20.8688 28.0688 20.25 28.0688 19.5188V17.0438C28.0688 16.65 27.9563 16.3125 27.675 16.0875ZM27.675 16.0875C27.45 15.8063 27.1125 15.6938 26.7188 15.6938C25.9875 15.6938 25.3687 16.3125 25.3687 17.0438V19.5188C25.3687 20.25 25.9875 20.8688 26.7188 20.8688C27.45 20.8688 28.0688 20.25 28.0688 19.5188V17.0438C28.0688 16.65 27.9563 16.3125 27.675 16.0875ZM21.15 4.5H14.85C12.2625 4.5 10.125 6.6375 10.125 9.225V9.50625H11.25V9.225C11.25 7.25625 12.8812 5.625 14.85 5.625H21.15C23.1187 5.625 24.75 7.25625 24.75 9.225V9.50625H25.875V9.225C25.875 6.6375 23.7937 4.5 21.15 4.5Z" fill="white"/>
</svg>