<svg xmlns="http://www.w3.org/2000/svg" width="31" height="30" viewBox="0 0 31 30" fill="none">
  <path fill-rule="evenodd" clip-rule="evenodd" d="M3.54206 12.2005L9.42319 7.05326C9.33959 6.82457 9.29696 6.58293 9.29725 6.33945C9.29725 5.1927 10.2269 4.26313 11.3736 4.26313C12.4984 4.26313 13.4142 5.15751 13.4489 6.27388L18.0971 7.90126C18.4779 7.4542 19.0449 7.17063 19.6782 7.17063C20.0228 7.1701 20.3622 7.25576 20.6653 7.41982L26.0239 2.84138C25.946 2.61974 25.9062 2.38646 25.9064 2.15151C25.9064 1.00482 26.8361 0.0751953 27.9827 0.0751953C29.1296 0.0751953 30.0592 1.00482 30.0592 2.15151C30.0592 3.29832 29.1296 4.22795 27.9827 4.22795C27.6381 4.22848 27.2988 4.14282 26.9958 3.97876L21.6371 8.5572C21.715 8.77884 21.7548 9.01212 21.7546 9.24707C21.7546 10.3938 20.8249 11.3234 19.6781 11.3234C18.5534 11.3234 17.6376 10.429 17.6029 9.31269L12.9547 7.68532C12.5738 8.13238 12.0069 8.41595 11.3736 8.41595C11.0371 8.41642 10.7056 8.33474 10.4079 8.17801L4.52675 13.3253C4.61035 13.5539 4.65298 13.7956 4.65269 14.0391C4.65269 15.1859 3.72306 16.1154 2.57625 16.1154C1.42963 16.1153 0.5 15.1858 0.5 14.0389C0.5 12.8921 1.42963 11.9626 2.57631 11.9626C2.91279 11.9621 3.2443 12.0438 3.54206 12.2005ZM26.4032 8.32838C25.8869 8.32838 25.4657 8.74951 25.4657 9.26588V28.3989C25.4657 28.9153 25.8869 29.3364 26.4032 29.3364H29.5625C30.0789 29.3364 30.5001 28.9153 30.5001 28.3989V9.26588C30.5001 8.74951 30.079 8.32838 29.5625 8.32838H26.4032ZM18.0986 15.974C17.5822 15.974 17.1611 16.3951 17.1611 16.9115V28.5949C17.1611 29.1113 17.5823 29.5324 18.0986 29.5324H21.2579C21.7743 29.5324 22.1954 29.1113 22.1954 28.5949V16.9115C22.1954 16.3951 21.7743 15.974 21.2579 15.974H18.0986ZM9.794 13.2292C9.27756 13.2292 8.85644 13.6503 8.85644 14.1667V28.7909C8.85644 29.3073 9.2775 29.7284 9.794 29.7284H12.9532C13.4696 29.7284 13.8907 29.3073 13.8907 28.7909V14.1667C13.8907 13.6503 13.4696 13.2292 12.9532 13.2292H9.794ZM1.48937 21.299H4.64856C5.16494 21.299 5.58612 21.7201 5.58612 22.2365V28.9868C5.58612 29.5032 5.16494 29.9243 4.64856 29.9243H1.48937C0.973 29.9243 0.551813 29.5032 0.551813 28.9868V22.2365C0.551875 21.7201 0.973063 21.299 1.48937 21.299Z" fill="white"/>
</svg>