<svg xmlns="http://www.w3.org/2000/svg" width="33" height="32" viewBox="0 0 33 32" fill="none">
  <path fill-rule="evenodd" clip-rule="evenodd" d="M4.54206 13.2005L10.4232 8.05326C10.3396 7.82457 10.297 7.58293 10.2972 7.33945C10.2972 6.1927 11.2269 5.26313 12.3736 5.26313C13.4984 5.26313 14.4142 6.15751 14.4489 7.27388L19.0971 8.90126C19.4779 8.4542 20.0449 8.17063 20.6782 8.17063C21.0228 8.1701 21.3622 8.25576 21.6653 8.41982L27.0239 3.84138C26.946 3.61974 26.9062 3.38646 26.9064 3.15151C26.9064 2.00482 27.8361 1.0752 28.9827 1.0752C30.1296 1.0752 31.0592 2.00482 31.0592 3.15151C31.0592 4.29832 30.1296 5.22795 28.9827 5.22795C28.6381 5.22848 28.2988 5.14282 27.9958 4.97876L22.6371 9.5572C22.715 9.77884 22.7548 10.0121 22.7546 10.2471C22.7546 11.3938 21.8249 12.3234 20.6781 12.3234C19.5534 12.3234 18.6376 11.429 18.6029 10.3127L13.9547 8.68532C13.5738 9.13238 13.0069 9.41595 12.3736 9.41595C12.0371 9.41642 11.7056 9.33474 11.4079 9.17801L5.52675 14.3253C5.61035 14.5539 5.65298 14.7956 5.65269 15.0391C5.65269 16.1859 4.72306 17.1154 3.57625 17.1154C2.42963 17.1153 1.5 16.1858 1.5 15.0389C1.5 13.8921 2.42963 12.9626 3.57631 12.9626C3.91279 12.9621 4.2443 13.0438 4.54206 13.2005ZM27.4032 9.32838C26.8869 9.32838 26.4657 9.74951 26.4657 10.2659V29.3989C26.4657 29.9153 26.8869 30.3364 27.4032 30.3364H30.5625C31.0789 30.3364 31.5001 29.9153 31.5001 29.3989V10.2659C31.5001 9.74951 31.079 9.32838 30.5625 9.32838H27.4032ZM19.0986 16.974C18.5822 16.974 18.1611 17.3951 18.1611 17.9115V29.5949C18.1611 30.1113 18.5823 30.5324 19.0986 30.5324H22.2579C22.7743 30.5324 23.1954 30.1113 23.1954 29.5949V17.9115C23.1954 17.3951 22.7743 16.974 22.2579 16.974H19.0986ZM10.794 14.2292C10.2776 14.2292 9.85644 14.6503 9.85644 15.1667V29.7909C9.85644 30.3073 10.2775 30.7284 10.794 30.7284H13.9532C14.4696 30.7284 14.8907 30.3073 14.8907 29.7909V15.1667C14.8907 14.6503 14.4696 14.2292 13.9532 14.2292H10.794ZM2.48937 22.299H5.64856C6.16494 22.299 6.58612 22.7201 6.58612 23.2365V29.9868C6.58612 30.5032 6.16494 30.9243 5.64856 30.9243H2.48937C1.973 30.9243 1.55181 30.5032 1.55181 29.9868V23.2365C1.55188 22.7201 1.97306 22.299 2.48937 22.299Z" fill="#9CA3AF"/>
</svg>