<svg xmlns="http://www.w3.org/2000/svg" width="33" height="32" viewBox="0 0 33 32" fill="none">
  <g clip-path="url(#clip0_25120_6480)">
    <path fill-rule="evenodd" clip-rule="evenodd" d="M22.6756 3.91953H19.4396V0.683594L22.6756 3.91953ZM17.7898 26.8888C17.7898 27.6762 17.9616 28.4234 18.2695 29.0953H0.859375V0.683594H18.5629V4.35728C18.5629 4.59891 18.7588 4.79472 18.9998 4.79472H22.6756V10.0085C21.9633 9.96703 21.2517 10.3192 20.8723 10.9764L20.7745 11.1458L18.8436 10.031C17.7215 9.38315 16.2733 9.77122 15.6254 10.8933L15.3216 11.4195C14.9829 12.0062 15.1511 12.7503 15.6886 13.1392L15.3161 13.7845C14.9182 14.4737 15.1561 15.3617 15.8453 15.7597L22.6756 19.7031V21.6022C19.9418 21.8149 17.7898 24.1005 17.7898 26.8888V26.8888ZM3.65813 7.31834H5.31444V8.97466H7.36125V7.31834H9.0175V5.27153H7.36125V3.61528H5.31444V5.27153H3.65813V7.31834ZM3.22063 11.3001C3.22063 11.4161 3.26672 11.5274 3.34877 11.6095C3.43081 11.6915 3.54209 11.7376 3.65813 11.7376H13.6647C13.7807 11.7376 13.892 11.6915 13.974 11.6095C14.0561 11.5274 14.1022 11.4161 14.1022 11.3001C14.1022 11.1841 14.0561 11.0728 13.974 10.9907C13.892 10.9087 13.7807 10.8626 13.6647 10.8626H3.65813C3.54209 10.8626 3.43081 10.9087 3.34877 10.9907C3.26672 11.0728 3.22063 11.1841 3.22063 11.3001ZM3.22063 13.7773C3.22063 13.8348 3.23194 13.8917 3.25393 13.9448C3.27591 13.9978 3.30814 14.0461 3.34877 14.0867C3.38939 14.1273 3.43762 14.1596 3.4907 14.1815C3.54378 14.2035 3.60067 14.2148 3.65813 14.2148H13.6647C13.7807 14.2148 13.892 14.1687 13.974 14.0867C14.0561 14.0047 14.1022 13.8934 14.1022 13.7773C14.1022 13.6613 14.0561 13.55 13.974 13.468C13.892 13.3859 13.7807 13.3398 13.6647 13.3398H3.65813C3.54209 13.3398 3.43081 13.3859 3.34877 13.468C3.26672 13.55 3.22063 13.6613 3.22063 13.7773ZM3.22063 16.2546C3.22063 16.3706 3.26672 16.4819 3.34877 16.564C3.43081 16.646 3.54209 16.6921 3.65813 16.6921H13.6647C13.7807 16.6921 13.892 16.646 13.974 16.564C14.0561 16.4819 14.1022 16.3706 14.1022 16.2546C14.1022 16.1386 14.0561 16.0273 13.974 15.9452C13.892 15.8632 13.7807 15.8171 13.6647 15.8171H3.65813C3.54209 15.8171 3.43081 15.8632 3.34877 15.9452C3.26672 16.0273 3.22063 16.1386 3.22063 16.2546ZM3.22063 18.7318C3.22063 18.8479 3.26672 18.9592 3.34877 19.0412C3.43081 19.1232 3.54209 19.1693 3.65813 19.1693H18.3553C18.4713 19.1693 18.5826 19.1232 18.6647 19.0412C18.7467 18.9592 18.7928 18.8479 18.7928 18.7318C18.7928 18.6158 18.7467 18.5045 18.6647 18.4225C18.5826 18.3404 18.4713 18.2943 18.3553 18.2943H3.65813C3.54209 18.2943 3.43081 18.3404 3.34877 18.4225C3.26672 18.5045 3.22063 18.6158 3.22063 18.7318ZM3.22063 21.2091C3.22063 21.3251 3.26672 21.4364 3.34877 21.5185C3.43081 21.6005 3.54209 21.6466 3.65813 21.6466H18.3553C18.4713 21.6466 18.5826 21.6005 18.6647 21.5185C18.7467 21.4364 18.7928 21.3251 18.7928 21.2091C18.7928 21.0931 18.7467 20.9818 18.6647 20.8997C18.5826 20.8177 18.4713 20.7716 18.3553 20.7716H3.65813C3.54209 20.7716 3.43081 20.8177 3.34877 20.8997C3.26672 20.9818 3.22063 21.0931 3.22063 21.2091ZM8.48031 26.1636C8.48031 26.0476 8.43422 25.9363 8.35217 25.8542C8.27013 25.7722 8.15885 25.7261 8.04281 25.7261H3.65813C3.54209 25.7261 3.43081 25.7722 3.34877 25.8542C3.26672 25.9363 3.22063 26.0476 3.22063 26.1636C3.22063 26.2796 3.26672 26.3909 3.34877 26.4729C3.43081 26.555 3.54209 26.6011 3.65813 26.6011H8.04288C8.15891 26.6011 8.27019 26.555 8.35223 26.4729C8.43428 26.3909 8.48038 26.2796 8.48038 26.1636H8.48031ZM16.8758 23.6863C16.8758 23.5703 16.8297 23.459 16.7477 23.377C16.6656 23.2949 16.5543 23.2488 16.4383 23.2488H3.65813C3.54209 23.2488 3.43081 23.2949 3.34877 23.377C3.26672 23.459 3.22063 23.5703 3.22063 23.6863C3.22063 23.8024 3.26672 23.9137 3.34877 23.9957C3.43081 24.0777 3.54209 24.1238 3.65813 24.1238H16.4383C16.5543 24.1238 16.6656 24.0777 16.7477 23.9957C16.8297 23.9137 16.8758 23.8024 16.8758 23.6863ZM25.4919 20.3187C25.7638 20.4757 26.1148 20.3817 26.2718 20.1097L26.6428 19.4672L16.4447 13.5793L16.0738 14.2218C15.9168 14.4938 16.0108 14.8448 16.2828 15.0018L25.4919 20.3187ZM28.0789 16.3733L18.4061 10.7887C17.7007 10.3815 16.7904 10.6253 16.3832 11.3308L16.0794 11.857C15.9589 12.0658 16.0308 12.3343 16.2396 12.4549L27.7193 19.0827C27.9281 19.2032 28.1966 19.1313 28.3172 18.9225L28.621 18.3963C29.0283 17.6909 28.7844 16.7806 28.079 16.3734L28.0789 16.3733ZM21.63 11.4139L21.5303 11.5865L25.8258 14.0665L25.9255 13.8939C26.2199 13.384 26.0436 12.726 25.5336 12.4316L23.0923 11.0221C22.5824 10.7277 21.9243 10.904 21.6299 11.414L21.63 11.4139ZM30.0225 1.83766C28.6315 1.03453 26.8528 1.51116 26.0498 2.90216C25.8274 3.28602 25.6962 3.71585 25.6663 4.15847C25.523 6.28528 24.9775 8.07809 23.9117 9.92416L23.6671 10.3478L25.8303 11.5968L26.0749 11.1731C27.1408 9.32703 28.4206 7.95822 30.1909 6.77072C30.5592 6.52351 30.8659 6.19495 31.0871 5.81041C31.8902 4.41941 31.4136 2.64072 30.0226 1.83766H30.0225ZM27.5206 26.8888C27.5206 29.3276 25.5314 31.3167 23.0926 31.3167C20.6538 31.3167 18.6647 29.3276 18.6647 26.8888C18.6647 24.45 20.6538 22.4608 23.0926 22.4608C25.5314 22.4608 27.5206 24.45 27.5206 26.8888ZM25.5553 24.9719C25.3116 24.7283 24.913 24.7283 24.6694 24.9719L22.2141 27.4272L21.6158 26.3907C21.4435 26.0923 21.0584 25.9892 20.7601 26.1614C20.4617 26.3337 20.3585 26.7187 20.5308 27.0171L21.4482 28.6062C21.5708 28.8185 21.7664 28.9492 22.0095 28.9812C22.2526 29.0132 22.4754 28.9376 22.6488 28.7642L25.5553 25.8577C25.7989 25.6141 25.7989 25.2155 25.5553 24.9718V24.9719Z" fill="white"/>
  </g>
  <defs>
    <clipPath id="clip0_25120_6480">
      <rect width="32" height="32" fill="white" transform="translate(0.167969)"/>
    </clipPath>
  </defs>
</svg>