<svg xmlns="http://www.w3.org/2000/svg" width="37" height="36" viewBox="0 0 37 36" fill="none">
  <path d="M1.41797 16.5H5.91797V29.25H1.41797V16.5ZM35.6705 21.4725C35.3981 20.9491 34.9311 20.5536 34.3699 20.3712C33.8088 20.1889 33.1985 20.2342 32.6705 20.4975L24.218 24.8025C23.1455 26.475 21.398 27.555 19.6355 26.7075L13.718 23.925C13.5531 23.8312 13.4299 23.6785 13.3732 23.4976C13.3164 23.3166 13.3303 23.1209 13.4121 22.9498C13.4938 22.7787 13.6374 22.6449 13.8138 22.5753C13.9902 22.5058 14.1865 22.5057 14.363 22.575C20.8055 25.575 20.4155 25.485 20.918 25.5C22.6955 25.5825 23.8205 22.8225 21.878 21.96C11.288 16.9875 12.788 17.145 7.41797 17.8125V27.75C8.23419 27.6866 9.05343 27.8257 9.80297 28.155C20.723 33.1125 17.648 33.2175 34.6955 24.5025C34.9585 24.3676 35.1924 24.1823 35.3838 23.957C35.5751 23.7317 35.7202 23.4709 35.8108 23.1895C35.9013 22.9081 35.9355 22.6117 35.9115 22.317C35.8874 22.0224 35.8055 21.7355 35.6705 21.4725ZM22.418 6.75C22.6505 6.75 22.568 6.75 24.668 7.785V4.5H20.168V7.785C22.2755 6.75 22.1855 6.75 22.418 6.75Z" fill="#09B2B5"/>
  <path d="M22.5155 20.6025C22.9996 20.8301 23.4295 21.1587 23.7762 21.5662C24.1229 21.9737 24.3784 22.4506 24.5255 22.965C32.7905 18.75 32.258 18.9525 32.918 18.8325V4.5H26.168C26.168 9.3675 26.288 9.345 25.8155 9.6375C25.343 9.93 25.2605 9.75 22.418 8.34L19.7555 9.6675C19.6413 9.72503 19.5143 9.75242 19.3866 9.74707C19.2588 9.74172 19.1346 9.70381 19.0256 9.63693C18.9167 9.57005 18.8266 9.47643 18.764 9.36495C18.7014 9.25347 18.6684 9.12785 18.668 9V4.5H11.918V16.065C13.8155 16.335 14.2955 16.74 22.5155 20.6025ZM26.918 16.5H29.918C30.1169 16.5 30.3076 16.579 30.4483 16.7197C30.589 16.8603 30.668 17.0511 30.668 17.25C30.668 17.4489 30.589 17.6397 30.4483 17.7803C30.3076 17.921 30.1169 18 29.918 18H26.918C26.7191 18 26.5283 17.921 26.3876 17.7803C26.247 17.6397 26.168 17.4489 26.168 17.25C26.168 17.0511 26.247 16.8603 26.3876 16.7197C26.5283 16.579 26.7191 16.5 26.918 16.5Z" fill="#09B2B5"/>
</svg>