<svg xmlns="http://www.w3.org/2000/svg" width="37" height="36" viewBox="0 0 37 36" fill="none">
  <g clip-path="url(#clip0_25120_6449)">
    <path d="M19.4606 23.6252C19.2307 23.6259 19.0061 23.5562 18.8171 23.4255C18.628 23.2948 18.4835 23.1092 18.4031 22.8939L16.0856 16.7064L13.7681 22.8939C13.7164 23.0328 13.6378 23.1601 13.5369 23.2686C13.436 23.3771 13.3147 23.4647 13.1799 23.5264C13.0452 23.588 12.8996 23.6225 12.7515 23.6278C12.6034 23.6332 12.4557 23.6094 12.3168 23.5577C12.178 23.506 12.0506 23.4274 11.9421 23.3265C11.8336 23.2256 11.746 23.1043 11.6844 22.9695C11.6228 22.8347 11.5883 22.6892 11.5829 22.5411C11.5775 22.393 11.6014 22.2453 11.6531 22.1064L15.0281 13.1064C15.1069 12.8892 15.2507 12.7016 15.4399 12.569C15.6291 12.4364 15.8545 12.3652 16.0856 12.3652C16.3166 12.3652 16.5421 12.4364 16.7313 12.569C16.9205 12.7016 17.0643 12.8892 17.1431 13.1064L20.5181 22.1064C20.5818 22.2769 20.6032 22.4602 20.5804 22.6408C20.5577 22.8213 20.4915 22.9937 20.3875 23.143C20.2835 23.2924 20.1448 23.4142 19.9834 23.4982C19.822 23.5822 19.6426 23.6258 19.4606 23.6252ZM22.8356 23.6252C22.5372 23.6252 22.2511 23.5066 22.0401 23.2957C21.8291 23.0847 21.7106 22.7985 21.7106 22.5002V13.5002C21.7106 13.2018 21.8291 12.9156 22.0401 12.7047C22.2511 12.4937 22.5372 12.3752 22.8356 12.3752C23.1339 12.3752 23.4201 12.4937 23.6311 12.7047C23.8421 12.9156 23.9606 13.2018 23.9606 13.5002V22.5002C23.9606 22.7985 23.8421 23.0847 23.6311 23.2957C23.4201 23.5066 23.1339 23.6252 22.8356 23.6252Z" fill="#09B2B5"/>
    <path d="M18.3359 21.375H13.8359C13.5376 21.375 13.2514 21.2565 13.0404 21.0455C12.8295 20.8345 12.7109 20.5484 12.7109 20.25C12.7109 19.9516 12.8295 19.6655 13.0404 19.4545C13.2514 19.2435 13.5376 19.125 13.8359 19.125H18.3359C18.6343 19.125 18.9205 19.2435 19.1314 19.4545C19.3424 19.6655 19.4609 19.9516 19.4609 20.25C19.4609 20.5484 19.3424 20.8345 19.1314 21.0455C18.9205 21.2565 18.6343 21.375 18.3359 21.375Z" fill="#09B2B5"/>
    <path d="M23.9606 28.125H12.7106C8.42437 28.125 6.97312 22.5 9.33562 22.5C9.63399 22.5 9.92014 22.6185 10.1311 22.8295C10.3421 23.0405 10.4606 23.3266 10.4606 23.625C10.4606 24.2217 10.6977 24.794 11.1196 25.216C11.5416 25.6379 12.1139 25.875 12.7106 25.875H23.9606C24.5574 25.875 25.1297 25.6379 25.5516 25.216C25.9736 24.794 26.2106 24.2217 26.2106 23.625V12.375C26.2106 11.7783 25.9736 11.206 25.5516 10.784C25.1297 10.3621 24.5574 10.125 23.9606 10.125H12.7106C12.1139 10.125 11.5416 10.3621 11.1196 10.784C10.6977 11.206 10.4606 11.7783 10.4606 12.375V19.125C10.4606 19.4234 10.3421 19.7095 10.1311 19.9205C9.92014 20.1315 9.63399 20.25 9.33562 20.25C9.03725 20.25 8.75111 20.1315 8.54013 19.9205C8.32915 19.7095 8.21062 19.4234 8.21062 19.125V12.375C8.21062 11.1815 8.68473 10.0369 9.52864 9.19302C10.3726 8.34911 11.5171 7.875 12.7106 7.875H23.9606C25.1541 7.875 26.2987 8.34911 27.1426 9.19302C27.9865 10.0369 28.4606 11.1815 28.4606 12.375V23.625C28.4606 24.8185 27.9865 25.9631 27.1426 26.807C26.2987 27.6509 25.1541 28.125 23.9606 28.125Z" fill="#09B2B5"/>
    <path d="M2.06544 14.6254C1.88828 14.632 1.71207 14.5967 1.55117 14.5222C1.39026 14.4478 1.24923 14.3364 1.13955 14.1971C1.02988 14.0578 0.954678 13.8946 0.920076 13.7207C0.885473 13.5469 0.892451 13.3673 0.94044 13.1966C1.83212 9.94436 3.61949 7.00798 6.09885 4.72214C8.57822 2.4363 11.6499 0.892928 14.9637 0.267914C18.2776 -0.3571 21.7004 -0.0386174 24.842 1.18707C27.9837 2.41275 30.7179 4.49634 32.7329 7.20037C32.912 7.43907 32.9888 7.7391 32.9466 8.03447C32.9044 8.32984 32.7466 8.59635 32.5079 8.77537C32.3898 8.86402 32.2553 8.92851 32.1121 8.96518C31.969 9.00184 31.8201 9.00996 31.6738 8.98907C31.3785 8.94687 31.112 8.78907 30.9329 8.55037C23.2154 -1.73213 6.67794 1.01288 3.14544 13.8041C3.07933 14.0399 2.93809 14.2477 2.74318 14.3959C2.54826 14.5441 2.31031 14.6247 2.06544 14.6254Z" fill="#09B2B5"/>
    <path d="M32.957 10.125H29.582C29.2837 10.125 28.9975 10.0065 28.7865 9.7955C28.5756 9.58452 28.457 9.29837 28.457 9C28.457 8.70163 28.5756 8.41548 28.7865 8.2045C28.9975 7.99353 29.2837 7.875 29.582 7.875H31.832V5.625C31.832 5.32663 31.9506 5.04048 32.1615 4.82951C32.3725 4.61853 32.6587 4.5 32.957 4.5C33.2554 4.5 33.5415 4.61853 33.7525 4.82951C33.9635 5.04048 34.082 5.32663 34.082 5.625V9C34.082 9.29837 33.9635 9.58452 33.7525 9.7955C33.5415 10.0065 33.2554 10.125 32.957 10.125ZM3.93203 28.8C3.84339 28.6818 3.77889 28.5473 3.74223 28.4042C3.70556 28.2611 3.69744 28.1122 3.71834 27.9659C3.73923 27.8196 3.78873 27.6789 3.864 27.5518C3.93927 27.4247 4.03884 27.3136 4.15703 27.225C4.27522 27.1364 4.40971 27.0719 4.55283 27.0352C4.69594 26.9985 4.84488 26.9904 4.99113 27.0113C5.13738 27.0322 5.27809 27.0817 5.40521 27.157C5.53234 27.2322 5.64339 27.3318 5.73203 27.45C13.4495 37.7325 29.987 34.9875 33.5195 22.1962C33.5503 22.0446 33.612 21.9009 33.7008 21.7741C33.7896 21.6474 33.9036 21.5403 34.0357 21.4596C34.1678 21.3789 34.3151 21.3264 34.4684 21.3052C34.6217 21.2841 34.7777 21.2948 34.9267 21.3367C35.0757 21.3786 35.2144 21.4508 35.3342 21.5488C35.4541 21.6467 35.5524 21.7684 35.623 21.9061C35.6937 22.0438 35.7352 22.1946 35.7449 22.349C35.7546 22.5035 35.7324 22.6583 35.6795 22.8038C34.7819 26.0455 32.9938 28.9709 30.5182 31.2481C28.0425 33.5254 24.9782 35.0633 21.6729 35.6876C18.3676 36.3119 14.9535 35.9975 11.8178 34.7801C8.68208 33.5627 5.95022 31.491 3.93203 28.8Z" fill="#09B2B5"/>
    <path d="M3.70703 31.5C3.40866 31.5 3.12251 31.3815 2.91154 31.1705C2.70056 30.9595 2.58203 30.6734 2.58203 30.375V27C2.58203 26.7016 2.70056 26.4155 2.91154 26.2045C3.12251 25.9935 3.40866 25.875 3.70703 25.875H7.08203C7.3804 25.875 7.66655 25.9935 7.87753 26.2045C8.0885 26.4155 8.20703 26.7016 8.20703 27C8.20703 27.2984 8.0885 27.5845 7.87753 27.7955C7.66655 28.0065 7.3804 28.125 7.08203 28.125H4.83203V30.375C4.83203 30.6734 4.7135 30.9595 4.50253 31.1705C4.29155 31.3815 4.0054 31.5 3.70703 31.5Z" fill="#09B2B5"/>
  </g>
  <defs>
    <clipPath id="clip0_25120_6449">
      <rect width="36" height="36" fill="white" transform="translate(0.332031)"/>
    </clipPath>
  </defs>
</svg>