<svg xmlns="http://www.w3.org/2000/svg" width="36" height="36" viewBox="0 0 36 36" fill="none">
  <path d="M28.5 3.375H27.375V5.625C27.375 6.42065 27.0589 7.18371 26.4963 7.74632C25.9337 8.30893 25.1706 8.625 24.375 8.625H11.625C10.8294 8.625 10.0663 8.30893 9.50368 7.74632C8.94107 7.18371 8.625 6.42065 8.625 5.625V3.375H7.5C6.80502 3.37894 6.13963 3.65676 5.6482 4.1482C5.15676 4.63963 4.87894 5.30502 4.875 6V31.5C4.87894 32.195 5.15676 32.8604 5.6482 33.3518C6.13963 33.8432 6.80502 34.1211 7.5 34.125H28.5C29.195 34.1211 29.8604 33.8432 30.3518 33.3518C30.8432 32.8604 31.1211 32.195 31.125 31.5V6C31.1211 5.30502 30.8432 4.63963 30.3518 4.1482C29.8604 3.65676 29.195 3.37894 28.5 3.375ZM23.325 18.375L17.7 24.375C17.4815 24.5947 17.1848 24.7188 16.875 24.72C16.5979 24.7233 16.3299 24.6215 16.125 24.435L12.75 21.435C12.6382 21.3391 12.547 21.2216 12.4817 21.0895C12.4164 20.9575 12.3785 20.8137 12.37 20.6666C12.3616 20.5196 12.383 20.3724 12.4328 20.2338C12.4826 20.0952 12.5599 19.968 12.66 19.86C12.8439 19.6226 13.1141 19.4674 13.4118 19.4281C13.7095 19.3888 14.0107 19.4685 14.25 19.65L16.8 21.93L21.675 16.755C21.8859 16.5443 22.1719 16.426 22.47 16.426C22.7681 16.426 23.0541 16.5443 23.265 16.755C23.4706 16.9561 23.5913 17.2282 23.6025 17.5156C23.6136 17.8029 23.5143 18.0836 23.325 18.3V18.375Z" fill="white"/>
  <path d="M24 1.875H12C10.9645 1.875 10.125 2.71447 10.125 3.75V5.25C10.125 6.28553 10.9645 7.125 12 7.125H24C25.0355 7.125 25.875 6.28553 25.875 5.25V3.75C25.875 2.71447 25.0355 1.875 24 1.875Z" fill="white"/>
</svg>