<svg xmlns="http://www.w3.org/2000/svg" width="33" height="33" viewBox="0 0 33 33" fill="none">
  <g clip-path="url(#clip0_24237_8674)">
    <path d="M28.0561 14.117C27.9775 13.9376 27.8484 13.785 27.6844 13.6778C27.5205 13.5706 27.3289 13.5136 27.133 13.5136H18.757L22.7915 2.20301C22.8696 1.98415 22.8696 1.74505 22.7916 1.52616C22.7136 1.30728 22.5624 1.12206 22.3636 1.00184C22.1648 0.881626 21.9305 0.833797 21.7004 0.86645C21.4704 0.899103 21.2587 1.01023 21.1011 1.18103L5.12236 18.5082C4.98958 18.6522 4.90164 18.8317 4.8693 19.0249C4.83696 19.2181 4.86162 19.4165 4.94027 19.5959C5.01884 19.7753 5.148 19.9279 5.31194 20.0351C5.47588 20.1422 5.66749 20.1993 5.86335 20.1993H11.3087C11.8654 20.1993 12.3165 19.748 12.3165 19.1914C12.3165 18.6348 11.8654 18.1835 11.3087 18.1835H8.16371L19.2321 6.18114L16.3778 14.1827C16.2679 14.4914 16.3198 14.8343 16.5087 15.1021C16.6975 15.37 17.01 15.5292 17.3377 15.5292H24.8325L13.7657 27.5302L16.6204 19.53C16.6747 19.3779 16.6916 19.215 16.6697 19.055C16.6479 18.895 16.5879 18.7426 16.4949 18.6106C16.4018 18.4786 16.2784 18.3709 16.1351 18.2966C15.9917 18.2222 15.8326 18.1834 15.6711 18.1834H15.6612C15.1875 18.1834 14.7937 18.5102 14.6869 18.9506L10.2055 31.5094C10.1274 31.7283 10.1273 31.9674 10.2052 32.1864C10.2832 32.4053 10.4344 32.5906 10.6332 32.7108C10.8321 32.8311 11.0664 32.8789 11.2965 32.8462C11.5266 32.8135 11.7383 32.7023 11.8958 32.5314L27.8737 15.2044C28.0066 15.0605 28.0946 14.881 28.1269 14.6879C28.1593 14.4947 28.1347 14.2963 28.0561 14.117Z" fill="#48BB78"/>
  </g>
  <defs>
    <clipPath id="clip0_24237_8674">
      <rect width="32" height="32" fill="white" transform="translate(0.5 0.856445)"/>
    </clipPath>
  </defs>
</svg>