<svg xmlns="http://www.w3.org/2000/svg" width="32" height="32" viewBox="0 0 32 32" fill="none">
  <path d="M16 2C12.8894 2 9.93416 3.0086 7.50612 4.86967V4.47059C7.50612 4.01578 7.1374 3.64706 6.68259 3.64706C6.22778 3.64706 5.85906 4.01578 5.85906 4.47059L5.85911 6.68451C5.85983 7.41333 6.74622 7.78502 7.26504 7.26587C9.59821 4.93226 12.7003 3.64706 16 3.64706C22.8114 3.64706 28.3529 9.18859 28.3529 16C28.3529 22.8114 22.8114 28.3529 16 28.3529C9.18859 28.3529 3.64706 22.8114 3.64706 16C3.64706 14.1045 4.06475 12.2863 4.88856 10.5961C5.08785 10.1873 4.91793 9.69424 4.50913 9.495C4.10027 9.29548 3.60725 9.46557 3.40802 9.87442C2.47375 11.7914 2 13.8523 2 16C2 23.7374 8.26151 30 16 30C23.7374 30 30 23.7385 30 16C30 8.26256 23.7385 2 16 2Z" fill="#09B2B5"/>
  <path d="M16.0044 25.8819C10.5552 25.8819 6.12201 21.4487 6.12201 15.9995C6.12201 10.5504 10.5552 6.11719 16.0044 6.11719C21.4535 6.11719 25.8867 10.5504 25.8867 15.9995C25.8867 21.4487 21.4535 25.8819 16.0044 25.8819ZM20.6364 18.6506L16.8279 15.6038V11.0584C16.8279 10.6036 16.4592 10.2348 16.0044 10.2348C15.5496 10.2348 15.1808 10.6036 15.1808 11.0584V15.9995C15.1808 16.2497 15.2945 16.4863 15.4899 16.6426L19.6076 19.9367C19.9616 20.2201 20.4801 20.1643 20.7651 19.8081C21.0492 19.4529 20.9916 18.9347 20.6364 18.6506Z" fill="#09B2B5"/>
</svg>