<svg width="36" height="36" viewBox="0 0 36 36" fill="none" xmlns="http://www.w3.org/2000/svg">
<g clip-path="url(#clip0_24109_7944)">
<path d="M18 36C27.9411 36 36 27.9411 36 18C36 8.05887 27.9411 0 18 0C8.05887 0 0 8.05887 0 18C0 27.9411 8.05887 36 18 36Z" fill="#635BFF"/>
<path fill-rule="evenodd" clip-rule="evenodd" d="M31.9668 18.1592C31.9668 16.1725 31.0045 14.6049 29.1652 14.6049C27.3183 14.6049 26.2008 16.1725 26.2008 18.1436C26.2008 20.4795 27.5201 21.6591 29.4136 21.6591C30.3371 21.6591 31.0355 21.4496 31.5633 21.1547V19.6026C31.0356 19.8665 30.4302 20.0294 29.6619 20.0294C28.9092 20.0294 28.2418 19.7655 28.1564 18.8498H31.9512C31.9512 18.749 31.9668 18.3454 31.9668 18.1592ZM28.1331 17.4219C28.1331 16.545 28.6686 16.1803 29.1575 16.1803C29.6309 16.1803 30.1353 16.545 30.1353 17.4219H28.1331ZM23.2053 14.6049C22.4448 14.6049 21.9558 14.9619 21.6842 15.2103L21.5833 14.7291H19.876V23.7778L21.8162 23.3664L21.8239 21.1702C22.1033 21.372 22.5146 21.6591 23.1975 21.6591C24.5866 21.6591 25.8516 20.5416 25.8516 18.0815C25.8438 15.831 24.5634 14.6049 23.2053 14.6049ZM22.7397 19.9519C22.2818 19.9519 22.0102 19.7889 21.8239 19.5871L21.8162 16.7081C22.018 16.483 22.2973 16.3278 22.7397 16.3278C23.4459 16.3278 23.9348 17.1194 23.9348 18.136C23.9348 19.1758 23.4536 19.9519 22.7397 19.9519ZM17.2065 14.1471L19.1544 13.728V12.1526L17.2065 12.564V14.1471ZM17.2065 14.7368H19.1544V21.5272H17.2065V14.7368ZM15.1189 15.3112L14.9947 14.7369H13.3185V21.5273H15.2586V16.9254C15.7165 16.3278 16.4925 16.4365 16.7331 16.5219V14.737C16.4847 14.6438 15.5768 14.473 15.1189 15.3112ZM11.2387 13.0529L9.3452 13.4564L9.33747 19.6724C9.33747 20.821 10.1989 21.6668 11.3474 21.6668C11.9838 21.6668 12.4494 21.5504 12.7055 21.4108V19.8354C12.4572 19.9363 11.2311 20.2933 11.2311 19.1447V16.3898H12.7055V14.7368H11.2311L11.2387 13.0529ZM5.9927 16.708C5.9927 16.4054 6.24105 16.2889 6.6523 16.2889C7.24209 16.2889 7.98712 16.4674 8.5769 16.7856V14.9619C7.93277 14.7058 7.29644 14.6049 6.6523 14.6049C5.07695 14.6049 4.0293 15.4275 4.0293 16.8011C4.0293 18.943 6.97827 18.6016 6.97827 19.5251C6.97827 19.882 6.66784 19.9985 6.23324 19.9985C5.58911 19.9985 4.76652 19.7346 4.11466 19.3776V21.2246C4.83634 21.535 5.56584 21.6669 6.23324 21.6669C7.84741 21.6669 8.95715 20.8676 8.95715 19.4785C8.94941 17.1659 5.9927 17.5772 5.9927 16.708Z" fill="white"/>
</g>
<defs>
<clipPath id="clip0_24109_7944">
<rect width="36" height="36" fill="white"/>
</clipPath>
</defs>
</svg>
